<svg data-v-423bf9ae="" xmlns="http://www.w3.org/2000/svg" viewBox="0 0 1843.8617196039897 193" class="fontAboveSlogan"><!----><!----><!----><g data-v-423bf9ae="" id="57d71f14-2171-477f-972d-99c3dded109c" fill="black" transform="matrix(2.552648256689109,0,0,2.552648256689109,727.6924153191617,25.262532244796283)"><path d="M3.72 5.88L3.72 5.88L3.72 5.88Q3.72 4.84 3.69 4.05L3.69 4.05L3.69 4.05Q3.65 3.25 3.61 2.70L3.61 2.70L3.61 2.70Q3.56 2.06 3.50 1.58L3.50 1.58L3.50 1.58Q2.62 1.58 2.06 1.60L2.06 1.60L2.06 1.60Q1.50 1.62 1.13 1.74L1.13 1.74L1.13 1.74Q0.77 1.85 0.54 2.09L0.54 2.09L0.54 2.09Q0.31 2.34 0.08 2.80L0.08 2.80L0 2.77L0 2.77Q0.24 2.38 0.42 1.89L0.42 1.89L0.42 1.89Q0.60 1.40 0.71 0.97L0.71 0.97L0.71 0.97Q0.85 0.46 0.95-0.06L0.95-0.06L1.11-0.01L1.06 0.21L1.06 0.21Q3.00 0.21 4.40 0.28L4.40 0.28L4.40 0.28Q5.81 0.35 6.75 0.37L6.75 0.37L6.75 0.37Q7.69 0.39 8.18 0.31L8.18 0.31L8.18 0.31Q8.68 0.24 8.81-0.06L8.81-0.06L8.89-0.01L8.89-0.01Q8.72 0.25 8.57 0.63L8.57 0.63L8.57 0.63Q8.43 0.95 8.27 1.45L8.27 1.45L8.27 1.45Q8.12 1.95 7.98 2.63L7.98 2.63L7.88 2.63L7.88 2.63Q7.94 2.32 7.89 2.11L7.89 2.11L7.89 2.11Q7.84 1.89 7.57 1.76L7.57 1.76L7.57 1.76Q7.29 1.64 6.74 1.59L6.74 1.59L6.74 1.59Q6.19 1.54 5.22 1.58L5.22 1.58L5.22 1.58Q5.19 2.21 5.17 2.95L5.17 2.95L5.17 2.95Q5.14 3.58 5.13 4.40L5.13 4.40L5.13 4.40Q5.12 5.21 5.12 6.09L5.12 6.09L5.12 6.09Q5.12 7.63 5.19 9.02L5.19 9.02L5.19 9.02Q5.26 10.40 5.35 11.45L5.35 11.45L5.35 11.45Q5.45 12.68 5.59 13.75L5.59 13.75L6.50 13.87L6.54 14.01L6.54 14.01Q6.31 14 6.03 13.97L6.03 13.97L6.03 13.97Q5.80 13.96 5.46 13.94L5.46 13.94L5.46 13.94Q5.12 13.93 4.72 13.93L4.72 13.93L4.72 13.93Q4.19 13.93 3.78 13.94L3.78 13.94L3.78 13.94Q3.37 13.96 3.09 13.97L3.09 13.97L3.09 13.97Q2.77 14 2.53 14.01L2.53 14.01L2.53 13.93L3.50 13.75L3.50 13.75Q3.56 12.87 3.61 11.69L3.61 11.69L3.61 11.69Q3.65 10.68 3.69 9.23L3.69 9.23L3.69 9.23Q3.72 7.77 3.72 5.88ZM18.20-7.04L18.20-7.04L18.20-7.04Q18.20-5.73 17.78-4.61L17.78-4.61L17.78-4.61Q17.36-3.50 16.67-2.57L16.67-2.57L16.67-2.57Q15.97-1.64 15.09-0.88L15.09-0.88L15.09-0.88Q14.21-0.13 13.29 0.46L13.29 0.46L13.29 0.46Q11.13 1.85 8.39 2.73L8.39 2.73L8.39 2.73Q11.09 1.85 13.22 0.46L13.22 0.46L13.22 0.46Q14.11-0.13 14.98-0.88L14.98-0.88L14.98-0.88Q15.85-1.64 16.53-2.57L16.53-2.57L16.53-2.57Q17.22-3.50 17.63-4.61L17.63-4.61L17.63-4.61Q18.05-5.73 18.05-7.04L18.05-7.04L18.05-7.04Q18.05-7.56 17.93-8.04L17.93-8.04L17.93-8.04Q17.81-8.51 17.50-8.88L17.50-8.88L17.50-8.88Q17.19-9.24 16.68-9.46L16.68-9.46L16.68-9.46Q16.17-9.67 15.37-9.67L15.37-9.67L15.37-9.67Q14.63-9.67 13.99-9.34L13.99-9.34L13.99-9.34Q13.36-9.02 12.87-8.57L12.87-8.57L12.87-8.57Q12.38-8.12 12.05-7.64L12.05-7.64L12.05-7.64Q11.72-7.17 11.62-6.87L11.62-6.87L11.62-6.87Q11.45-6.41 11.37-5.68L11.37-5.68L11.37-5.68Q11.28-4.94 11.24-4.04L11.24-4.04L11.24-4.04Q11.20-3.14 11.19-2.11L11.19-2.11L11.19-2.11Q11.19-1.09 11.19-0.06L11.19-0.06L11.19-0.06Q11.19 0.48 11.19 1.17L11.19 1.17L11.19 1.17Q11.19 1.86 11.18 2.63L11.18 2.63L11.18 2.63Q11.17 3.40 11.17 4.21L11.17 4.21L11.17 4.21Q11.17 5.03 11.17 5.80L11.17 5.80L11.17 9.55L11.17 9.55Q11.69 8.83 12.24 8.27L12.24 8.27L12.24 8.27Q12.46 8.04 12.72 7.80L12.72 7.80L12.72 7.80Q12.98 7.57 13.25 7.39L13.25 7.39L13.25 7.39Q13.52 7.21 13.79 7.10L13.79 7.10L13.79 7.10Q14.06 6.99 14.31 6.99L14.31 6.99L14.31 6.99Q14.56 6.99 14.87 7.13L14.87 7.13L14.87 7.13Q15.18 7.27 15.45 7.56L15.45 7.56L15.45 7.56Q15.72 7.85 15.91 8.31L15.91 8.31L15.91 8.31Q16.10 8.76 16.10 9.39L16.10 9.39L16.10 9.39Q16.10 10.30 15.83 11.14L15.83 11.14L15.83 11.14Q15.57 11.97 15.20 12.68L15.20 12.68L15.20 12.68Q14.83 13.40 14.43 13.96L14.43 13.96L14.43 13.96Q14.03 14.52 13.75 14.88L13.75 14.88L13.75 14.88Q13.45 15.26 13.15 15.59L13.15 15.59L13.15 15.59Q12.85 15.92 12.56 16.19L12.56 16.19L12.56 16.19Q12.28 16.46 12.03 16.68L12.03 16.68L12.03 16.68Q11.79 16.90 11.62 17.04L11.62 17.04L11.62 17.04Q12.49 16.27 13.16 15.32L13.16 15.32L13.16 15.32Q13.45 14.91 13.73 14.43L13.73 14.43L13.73 14.43Q14 13.96 14.22 13.41L14.22 13.41L14.22 13.41Q14.43 12.87 14.57 12.26L14.57 12.26L14.57 12.26Q14.70 11.66 14.70 11.00L14.70 11.00L14.70 11.00Q14.70 10.39 14.53 9.90L14.53 9.90L14.53 9.90Q14.35 9.41 14.08 9.07L14.08 9.07L14.08 9.07Q13.82 8.74 13.50 8.56L13.50 8.56L13.50 8.56Q13.19 8.39 12.92 8.39L12.92 8.39L12.92 8.39Q12.38 8.39 12.01 8.76L12.01 8.76L12.01 8.76Q11.65 9.13 11.44 9.77L11.44 9.77L11.44 9.77Q11.23 10.42 11.14 11.28L11.14 11.28L11.14 11.28Q11.05 12.15 11.05 13.16L11.05 13.16L11.05 13.16Q10.74 13.34 10.38 13.57L10.38 13.57L10.38 13.57Q10.02 13.80 9.79 14.01L9.79 14.01L9.79 14.01Q9.81 13.72 9.83 13.08L9.83 13.08L9.83 13.08Q9.86 12.43 9.86 11.55L9.86 11.55L9.86 11.55Q9.87 10.67 9.86 9.61L9.86 9.61L9.86 9.61Q9.86 8.55 9.85 7.44L9.85 7.44L9.85 7.44Q9.84 6.33 9.83 5.21L9.83 5.21L9.83 5.21Q9.83 4.10 9.81 3.11L9.81 3.11L9.81 3.11Q9.80 2.11 9.79 1.29L9.79 1.29L9.79 1.29Q9.79 0.48 9.79-0.06L9.79-0.06L9.79-0.06Q9.79-1.09 9.78-2.00L9.78-2.00L9.78-2.00Q9.77-2.90 9.74-3.74L9.74-3.74L9.74-3.74Q9.72-4.58 9.66-5.38L9.66-5.38L9.66-5.38Q9.60-6.17 9.49-7L9.49-7L9.49-7Q9.91-7 10.37-7.21L10.37-7.21L10.37-7.21Q10.82-7.42 11.30-7.73L11.30-7.73L11.30-7.73Q11.77-8.05 12.28-8.41L12.28-8.41L12.28-8.41Q12.78-8.78 13.29-9.09L13.29-9.09L13.29-9.09Q13.80-9.41 14.32-9.62L14.32-9.62L14.32-9.62Q14.84-9.83 15.37-9.83L15.37-9.83L15.37-9.83Q16.17-9.83 16.71-9.59L16.71-9.59L16.71-9.59Q17.25-9.35 17.58-8.97L17.58-8.97L17.58-8.97Q17.91-8.58 18.05-8.08L18.05-8.08L18.05-8.08Q18.20-7.57 18.20-7.04ZM22.30 12.49L22.30 12.49L22.30 12.49Q22.71 12.49 23.06 12.38L23.06 12.38L23.06 12.38Q23.42 12.28 23.69 12.14L23.69 12.14L23.69 12.14Q24.00 11.98 24.26 11.79L24.26 11.79L24.26 11.79Q23.88 12.42 23.35 12.91L23.35 12.91L23.35 12.91Q22.90 13.33 22.22 13.67L22.22 13.67L22.22 13.67Q21.55 14.01 20.65 14.01L20.65 14.01L20.65 14.01Q20.01 14.01 19.42 13.79L19.42 13.79L19.42 13.79Q18.83 13.57 18.37 13.15L18.37 13.15L18.37 13.15Q17.92 12.73 17.65 12.12L17.65 12.12L17.65 12.12Q17.39 11.51 17.39 10.75L17.39 10.75L17.39 10.75Q17.39 10.07 17.60 9.54L17.60 9.54L17.60 9.54Q17.82 9.02 18.17 8.62L18.17 8.62L18.17 8.62Q18.52 8.23 18.96 7.97L18.96 7.97L18.96 7.97Q19.39 7.71 19.81 7.55L19.81 7.55L19.81 7.55Q21.15 7 21.64 7L21.64 7L21.64 7Q22.16 7 22.55 7.17L22.55 7.17L22.55 7.17Q22.93 7.35 23.21 7.56L23.21 7.56L23.21 7.56Q23.52 7.81 23.76 8.12L23.76 8.12L19.14 9.98L19.14 9.98Q19.24 10.57 19.42 11.03L19.42 11.03L19.42 11.03Q19.60 11.49 19.95 11.82L19.95 11.82L19.95 11.82Q20.30 12.14 20.86 12.31L20.86 12.31L20.86 12.31Q21.42 12.49 22.30 12.49ZM20.03 7.81L20.03 7.81L20.03 7.81Q19.84 7.81 19.66 7.92L19.66 7.92L19.66 7.92Q19.47 8.02 19.33 8.19L19.33 8.19L19.33 8.19Q19.18 8.36 19.10 8.57L19.10 8.57L19.10 8.57Q19.03 8.78 19.04 8.99L19.04 8.99L19.04 8.99Q19.04 9.21 19.05 9.42L19.05 9.42L19.05 9.42Q19.05 9.63 19.10 9.84L19.10 9.84L21.45 8.76L21.45 8.76Q21.31 8.50 21.10 8.29L21.10 8.29L21.10 8.29Q20.92 8.11 20.65 7.96L20.65 7.96L20.65 7.96Q20.38 7.81 20.03 7.81ZM35.15 6.90L35.15 6.90L35.15 6.90Q35.15 4.91 35.11 3.63L35.11 3.63L35.11 3.63Q35.07 2.35 35.03 1.61L35.03 1.61L35.03 1.61Q34.97 0.74 34.92 0.29L34.92 0.29L34.06 0.15L34.06 0.01L34.06 0.01Q34.27 0.06 34.52 0.08L34.52 0.08L34.52 0.08Q34.75 0.11 35.07 0.13L35.07 0.13L35.07 0.13Q35.39 0.15 35.81 0.15L35.81 0.15L35.81 0.15Q36.33 0.15 36.74 0.13L36.74 0.13L36.74 0.13Q37.14 0.11 37.42 0.08L37.42 0.08L37.42 0.08Q37.76 0.06 38.00 0.01L38.00 0.01L38.00 0.15L37.24 0.29L37.24 0.29Q37.07 1.15 36.95 2.14L36.95 2.14L36.95 2.14Q36.83 3.00 36.74 4.13L36.74 4.13L36.74 4.13Q36.65 5.26 36.65 6.54L36.65 6.54L36.65 6.54Q36.65 8.36 36.68 9.58L36.68 9.58L36.68 9.58Q36.71 10.79 36.74 11.55L36.74 11.55L36.74 11.55Q36.78 12.43 36.83 12.95L36.83 12.95L36.83 12.95Q37.73 12.95 38.53 12.89L38.53 12.89L38.53 12.89Q38.86 12.88 39.22 12.85L39.22 12.85L39.22 12.85Q39.58 12.82 39.90 12.78L39.90 12.78L39.90 12.78Q40.22 12.74 40.49 12.70L40.49 12.70L40.49 12.70Q40.77 12.66 40.95 12.59L40.95 12.59L41.22 11.56L41.36 11.61L41.36 11.61Q41.24 12.04 41.13 12.47L41.13 12.47L41.13 12.47Q41.03 12.84 40.94 13.26L40.94 13.26L40.94 13.26Q40.84 13.68 40.77 14.01L40.77 14.01L40.77 14.01Q40.25 13.93 39.70 13.91L39.70 13.91L39.70 13.91Q39.14 13.89 38.59 13.89L38.59 13.89L38.59 13.89Q38.04 13.89 37.50 13.91L37.50 13.91L37.50 13.91Q36.96 13.93 36.47 13.93L36.47 13.93L36.47 13.93Q35.81 13.93 35.38 13.94L35.38 13.94L35.38 13.94Q34.94 13.96 34.66 13.97L34.66 13.97L34.66 13.97Q34.34 14 34.15 14.01L34.15 14.01L34.15 13.93L34.75 13.79L34.75 13.79Q34.86 13.34 34.94 12.45L34.94 12.45L34.94 12.45Q35.01 11.68 35.08 10.34L35.08 10.34L35.08 10.34Q35.15 9.00 35.15 6.90ZM47.67 12.49L47.67 12.49L47.67 12.49Q48.08 12.49 48.43 12.38L48.43 12.38L48.43 12.38Q48.79 12.28 49.06 12.14L49.06 12.14L49.06 12.14Q49.36 11.98 49.63 11.79L49.63 11.79L49.63 11.79Q49.25 12.42 48.72 12.91L48.72 12.91L48.72 12.91Q48.27 13.33 47.59 13.67L47.59 13.67L47.59 13.67Q46.91 14.01 46.02 14.01L46.02 14.01L46.02 14.01Q45.37 14.01 44.79 13.79L44.79 13.79L44.79 13.79Q44.20 13.57 43.74 13.15L43.74 13.15L43.74 13.15Q43.29 12.73 43.02 12.12L43.02 12.12L43.02 12.12Q42.76 11.51 42.76 10.75L42.76 10.75L42.76 10.75Q42.76 10.07 42.97 9.54L42.97 9.54L42.97 9.54Q43.19 9.02 43.54 8.62L43.54 8.62L43.54 8.62Q43.89 8.23 44.32 7.97L44.32 7.97L44.32 7.97Q44.76 7.71 45.18 7.55L45.18 7.55L45.18 7.55Q46.52 7 47.01 7L47.01 7L47.01 7Q47.53 7 47.91 7.17L47.91 7.17L47.91 7.17Q48.30 7.35 48.58 7.56L48.58 7.56L48.58 7.56Q48.89 7.81 49.13 8.12L49.13 8.12L44.51 9.98L44.51 9.98Q44.60 10.57 44.79 11.03L44.79 11.03L44.79 11.03Q44.97 11.49 45.32 11.82L45.32 11.82L45.32 11.82Q45.67 12.14 46.23 12.31L46.23 12.31L46.23 12.31Q46.79 12.49 47.67 12.49ZM45.40 7.81L45.40 7.81L45.40 7.81Q45.21 7.81 45.02 7.92L45.02 7.92L45.02 7.92Q44.84 8.02 44.70 8.19L44.70 8.19L44.70 8.19Q44.55 8.36 44.47 8.57L44.47 8.57L44.47 8.57Q44.39 8.78 44.41 8.99L44.41 8.99L44.41 8.99Q44.41 9.21 44.41 9.42L44.41 9.42L44.41 9.42Q44.42 9.63 44.46 9.84L44.46 9.84L46.82 8.76L46.82 8.76Q46.68 8.50 46.47 8.29L46.47 8.29L46.47 8.29Q46.28 8.11 46.02 7.96L46.02 7.96L46.02 7.96Q45.75 7.81 45.40 7.81ZM56.84 8.34L56.84 8.34L56.84 8.34Q56.70 9.90 56.83 11.16L56.83 11.16L56.83 11.16Q56.95 12.42 57.25 13.45L57.25 13.45L57.25 13.45Q57.54 14.49 57.97 15.33L57.97 15.33L57.97 15.33Q58.41 16.17 58.88 16.91L58.88 16.91L58.88 16.91Q59.35 17.64 59.81 18.30L59.81 18.30L59.81 18.30Q60.27 18.96 60.64 19.61L60.64 19.61L60.64 19.61Q61.01 20.27 61.24 20.96L61.24 20.96L61.24 20.96Q61.47 21.66 61.47 22.47L61.47 22.47L61.47 22.47Q61.47 23.32 61.17 24.08L61.17 24.08L61.17 24.08Q60.86 24.84 60.37 25.49L60.37 25.49L60.37 25.49Q59.88 26.15 59.28 26.73L59.28 26.73L59.28 26.73Q58.69 27.30 58.11 27.77L58.11 27.77L58.11 27.77Q57.54 28.24 57.06 28.62L57.06 28.62L57.06 28.62Q56.57 28.99 56.31 29.26L56.31 29.26L56.31 29.26Q55.96 28.90 55.40 28.39L55.40 28.39L55.40 28.39Q54.84 27.89 54.12 27.34L54.12 27.34L54.12 27.34Q53.41 26.80 52.56 26.26L52.56 26.26L52.56 26.26Q51.72 25.73 50.78 25.30L50.78 25.30L50.78 25.30Q49.84 24.86 48.84 24.58L48.84 24.58L48.84 24.58Q47.84 24.30 46.82 24.26L46.82 24.26L46.82 24.26Q46.06 25.14 45.19 26.03L45.19 26.03L45.19 26.03Q44.31 26.92 43.44 27.64L43.44 27.64L43.44 27.64Q42.56 28.36 41.73 28.84L41.73 28.84L41.73 28.84Q40.91 29.32 40.25 29.36L40.25 29.36L40.25 29.36Q39.96 29.39 39.77 29.27L39.77 29.27L39.77 29.27Q39.59 29.15 39.59 28.83L39.59 28.83L39.59 28.83Q39.59 28.45 39.96 27.89L39.96 27.89L39.96 27.89Q40.32 27.33 40.93 26.72L40.93 26.72L40.93 26.72Q41.54 26.11 42.34 25.51L42.34 25.51L42.34 25.51Q43.13 24.91 44.00 24.43L44.00 24.43L44.00 24.43Q44.87 23.95 45.76 23.65L45.76 23.65L45.76 23.65Q46.65 23.35 47.43 23.35L47.43 23.35L47.43 23.35Q47.85 22.83 48.23 22.36L48.23 22.36L48.23 22.36Q48.61 21.88 48.92 21.52L48.92 21.52L48.92 21.52Q49.97 20.27 50.74 19.05L50.74 19.05L50.74 19.05Q51.52 17.84 52.09 16.74L52.09 16.74L52.09 16.74Q52.65 15.65 53.04 14.74L53.04 14.74L53.04 14.74Q53.42 13.83 53.68 13.20L53.68 13.20L53.68 13.20Q53.62 13.23 53.55 13.24L53.55 13.24L53.55 13.24Q53.48 13.24 53.38 13.24L53.38 13.24L53.38 13.24Q52.96 13.24 52.54 13.03L52.54 13.03L52.54 13.03Q52.12 12.81 51.79 12.45L51.79 12.45L51.79 12.45Q51.45 12.08 51.23 11.59L51.23 11.59L51.23 11.59Q51.02 11.09 51.02 10.53L51.02 10.53L51.02 10.53Q51.02 10.02 51.17 9.63L51.17 9.63L51.17 9.63Q51.32 9.24 51.59 8.93L51.59 8.93L51.59 8.93Q51.86 8.61 52.19 8.35L52.19 8.35L52.19 8.35Q52.51 8.09 52.88 7.84L52.88 7.84L52.88 7.84Q53.42 7.46 53.89 7.22L53.89 7.22L53.89 7.22Q54.36 6.99 54.68 6.99L54.68 6.99L54.68 6.99Q55.06 6.99 55.49 7.13L55.49 7.13L55.49 7.13Q55.92 7.27 56.39 7.39L56.39 7.39L56.39 7.39Q56.87 7.52 57.39 7.55L57.39 7.55L57.39 7.55Q57.92 7.57 58.49 7.34L58.49 7.34L58.49 7.34Q58.30 7.53 58.09 7.65L58.09 7.65L58.09 7.65Q57.88 7.77 57.67 7.86L57.67 7.86L57.67 7.86Q57.46 7.95 57.25 8.06L57.25 8.06L57.25 8.06Q57.04 8.16 56.84 8.34ZM52.37 9.23L52.37 9.23L52.37 9.23Q52.37 10.01 52.69 10.56L52.69 10.56L52.69 10.56Q53.00 11.12 53.46 11.45L53.46 11.45L53.46 11.45Q53.91 11.77 54.43 11.87L54.43 11.87L54.43 11.87Q54.94 11.96 55.34 11.80L55.34 11.80L55.34 11.80Q55.31 11.51 55.31 11.25L55.31 11.25L55.31 11.25Q55.30 10.99 55.30 10.70L55.30 10.70L55.30 10.70Q55.30 10.32 55.30 10.02L55.30 10.02L55.30 10.02Q55.30 9.73 55.32 9.48L55.32 9.48L55.32 9.48Q55.34 9.23 55.40 9.00L55.40 9.00L55.40 9.00Q55.45 8.76 55.57 8.51L55.57 8.51L55.57 8.51Q55.40 8.41 55.12 8.31L55.12 8.31L55.12 8.31Q54.84 8.20 54.50 8.13L54.50 8.13L54.50 8.13Q54.15 8.06 53.76 8.05L53.76 8.05L53.76 8.05Q53.37 8.04 52.99 8.12L52.99 8.12L52.99 8.12Q52.65 8.29 52.51 8.55L52.51 8.55L52.51 8.55Q52.37 8.82 52.37 9.23ZM41.51 27.86L41.51 27.86L41.51 27.86Q42.03 27.93 42.65 27.66L42.65 27.66L42.65 27.66Q43.27 27.38 43.94 26.88L43.94 26.88L43.94 26.88Q44.60 26.38 45.28 25.69L45.28 25.69L45.28 25.69Q45.96 25.00 46.59 24.26L46.59 24.26L46.59 24.26Q45.46 24.26 44.44 24.62L44.44 24.62L44.44 24.62Q43.41 24.98 42.64 25.47L42.64 25.47L42.64 25.47Q41.86 25.97 41.41 26.50L41.41 26.50L41.41 26.50Q40.95 27.02 40.95 27.34L40.95 27.34L40.95 27.34Q40.95 27.64 41.13 27.75L41.13 27.75L41.13 27.75Q41.31 27.86 41.51 27.86ZM57.58 27.90L57.58 27.90L57.58 27.90Q57.96 27.61 58.41 27.22L58.41 27.22L58.41 27.22Q58.86 26.82 59.25 26.31L59.25 26.31L59.25 26.31Q59.64 25.79 59.90 25.16L59.90 25.16L59.90 25.16Q60.16 24.53 60.16 23.74L60.16 23.74L60.16 23.74Q60.16 22.89 59.84 22.15L59.84 22.15L59.84 22.15Q59.51 21.41 59.02 20.64L59.02 20.64L59.02 20.64Q58.52 19.88 57.93 19.05L57.93 19.05L57.93 19.05Q57.34 18.21 56.81 17.18L56.81 17.18L56.81 17.18Q56.28 16.14 55.87 14.85L55.87 14.85L55.87 14.85Q55.47 13.57 55.34 11.89L55.34 11.89L55.34 11.89Q55.13 12.07 54.96 12.26L54.96 12.26L54.96 12.26Q54.80 12.45 54.64 12.61L54.64 12.61L54.64 12.61Q54.49 12.78 54.33 12.91L54.33 12.91L54.33 12.91Q54.18 13.05 54.00 13.10L54.00 13.10L54.00 13.10Q53.86 13.48 53.56 14.13L53.56 14.13L53.56 14.13Q53.26 14.78 52.85 15.57L52.85 15.57L52.85 15.57Q52.44 16.37 51.96 17.23L51.96 17.23L51.96 17.23Q51.48 18.10 50.97 18.93L50.97 18.93L50.97 18.93Q50.46 19.75 49.95 20.48L49.95 20.48L49.95 20.48Q49.45 21.20 49 21.69L49 21.69L49 21.69Q48.85 21.88 48.47 22.34L48.47 22.34L48.47 22.34Q48.09 22.79 47.56 23.35L47.56 23.35L47.56 23.35Q48.57 23.38 49.58 23.65L49.58 23.65L49.58 23.65Q50.60 23.91 51.57 24.32L51.57 24.32L51.57 24.32Q52.54 24.72 53.44 25.22L53.44 25.22L53.44 25.22Q54.33 25.72 55.11 26.21L55.11 26.21L55.11 26.21Q55.89 26.71 56.52 27.16L56.52 27.16L56.52 27.16Q57.15 27.61 57.58 27.90ZM64.43 12.49L64.43 12.49L64.43 12.49Q64.83 12.49 65.19 12.38L65.19 12.38L65.19 12.38Q65.55 12.28 65.81 12.14L65.81 12.14L65.81 12.14Q66.12 11.98 66.39 11.79L66.39 11.79L66.39 11.79Q66.01 12.42 65.48 12.91L65.48 12.91L65.48 12.91Q65.03 13.33 64.35 13.67L64.35 13.67L64.35 13.67Q63.67 14.01 62.78 14.01L62.78 14.01L62.78 14.01Q62.13 14.01 61.54 13.79L61.54 13.79L61.54 13.79Q60.96 13.57 60.50 13.15L60.50 13.15L60.50 13.15Q60.05 12.73 59.78 12.12L59.78 12.12L59.78 12.12Q59.51 11.51 59.51 10.75L59.51 10.75L59.51 10.75Q59.51 10.07 59.73 9.54L59.73 9.54L59.73 9.54Q59.95 9.02 60.30 8.62L60.30 8.62L60.30 8.62Q60.65 8.23 61.08 7.97L61.08 7.97L61.08 7.97Q61.52 7.71 61.94 7.55L61.94 7.55L61.94 7.55Q63.28 7 63.77 7L63.77 7L63.77 7Q64.29 7 64.67 7.17L64.67 7.17L64.67 7.17Q65.06 7.35 65.34 7.56L65.34 7.56L65.34 7.56Q65.65 7.81 65.88 8.12L65.88 8.12L61.26 9.98L61.26 9.98Q61.36 10.57 61.54 11.03L61.54 11.03L61.54 11.03Q61.73 11.49 62.08 11.82L62.08 11.82L62.08 11.82Q62.43 12.14 62.99 12.31L62.99 12.31L62.99 12.31Q63.55 12.49 64.43 12.49ZM62.16 7.81L62.16 7.81L62.16 7.81Q61.96 7.81 61.78 7.92L61.78 7.92L61.78 7.92Q61.60 8.02 61.45 8.19L61.45 8.19L61.45 8.19Q61.31 8.36 61.23 8.57L61.23 8.57L61.23 8.57Q61.15 8.78 61.17 8.99L61.17 8.99L61.17 8.99Q61.17 9.21 61.17 9.42L61.17 9.42L61.17 9.42Q61.18 9.63 61.22 9.84L61.22 9.84L63.57 8.76L63.57 8.76Q63.43 8.50 63.22 8.29L63.22 8.29L63.22 8.29Q63.04 8.11 62.78 7.96L62.78 7.96L62.78 7.96Q62.51 7.81 62.16 7.81ZM72.35 6.99L72.35 6.99L72.35 6.99Q72.98 6.99 73.50 7.24L73.50 7.24L73.50 7.24Q74.02 7.49 74.39 7.90L74.39 7.90L74.39 7.90Q74.76 8.32 74.96 8.86L74.96 8.86L74.96 8.86Q75.17 9.39 75.17 9.97L75.17 9.97L75.17 9.97Q75.17 10.96 74.83 11.91L74.83 11.91L74.83 11.91Q74.49 12.85 73.87 13.58L73.87 13.58L73.87 13.58Q73.25 14.31 72.37 14.75L72.37 14.75L72.37 14.75Q71.50 15.19 70.42 15.19L70.42 15.19L70.42 15.19Q69.87 15.19 69.56 15.14L69.56 15.14L69.56 15.14Q69.24 15.09 68.96 15.04L68.96 15.04L68.96 15.04Q68.67 14.98 68.33 14.93L68.33 14.93L68.33 14.93Q67.98 14.88 67.38 14.88L67.38 14.88L67.38 14.88Q67.13 14.88 66.79 15.00L66.79 15.00L66.79 15.00Q66.46 15.12 66.16 15.37L66.16 15.37L66.16 15.37Q65.86 15.62 65.64 16.00L65.64 16.00L65.64 16.00Q65.42 16.38 65.42 16.88L65.42 16.88L65.42 16.88Q65.42 17.15 65.53 17.35L65.53 17.35L65.53 17.35Q65.65 17.54 65.84 17.70L65.84 17.70L65.84 17.70Q66.02 17.85 66.26 17.95L66.26 17.95L66.26 17.95Q66.50 18.06 66.75 18.13L66.75 18.13L66.75 18.13Q67.33 18.30 68.08 18.34L68.08 18.34L68.08 18.34Q67.28 18.31 66.67 18.16L66.67 18.16L66.67 18.16Q66.40 18.09 66.15 17.98L66.15 17.98L66.15 17.98Q65.90 17.88 65.70 17.72L65.70 17.72L65.70 17.72Q65.51 17.57 65.39 17.37L65.39 17.37L65.39 17.37Q65.27 17.16 65.27 16.88L65.27 16.88L65.27 16.88Q65.27 16.41 65.56 15.92L65.56 15.92L65.56 15.92Q65.86 15.43 66.35 15.04L66.35 15.04L66.35 15.04Q66.84 14.64 67.47 14.39L67.47 14.39L67.47 14.39Q68.11 14.14 68.80 14.14L68.80 14.14L68.80 14.14Q69.31 14.14 69.62 14.20L69.62 14.20L69.62 14.20Q69.93 14.25 70.21 14.31L70.21 14.31L70.21 14.31Q70.49 14.38 70.84 14.43L70.84 14.43L70.84 14.43Q71.19 14.48 71.79 14.48L71.79 14.48L71.79 14.48Q72.42 14.48 72.83 14.28L72.83 14.28L72.83 14.28Q73.23 14.08 73.47 13.70L73.47 13.70L73.47 13.70Q73.70 13.31 73.79 12.75L73.79 12.75L73.79 12.75Q73.88 12.18 73.88 11.42L73.88 11.42L73.88 11.42Q73.88 10.75 73.63 10.15L73.63 10.15L73.63 10.15Q73.37 9.55 72.95 9.09L72.95 9.09L72.95 9.09Q72.52 8.64 71.97 8.37L71.97 8.37L71.97 8.37Q71.41 8.11 70.81 8.11L70.81 8.11L70.81 8.11Q70.45 8.11 70.21 8.18L70.21 8.18L70.21 8.18Q69.97 8.25 69.76 8.44L69.76 8.44L69.76 8.44Q69.76 8.60 69.73 9.03L69.73 9.03L69.73 9.03Q69.71 9.46 69.70 10.11L69.70 10.11L69.70 10.11Q69.69 10.75 69.73 11.58L69.73 11.58L69.73 11.58Q69.78 12.40 69.93 13.34L69.93 13.34L69.93 13.34Q69.45 13.34 68.96 13.55L68.96 13.55L68.96 13.55Q68.46 13.76 68.08 14L68.08 14L68.08 14Q68.12 13.75 68.17 13.23L68.17 13.23L68.17 13.23Q68.21 12.71 68.24 12.09L68.24 12.09L68.24 12.09Q68.26 11.47 68.26 10.79L68.26 10.79L68.26 10.79Q68.25 10.12 68.21 9.55L68.21 9.55L68.21 9.55Q68.17 8.99 68.06 8.59L68.06 8.59L68.06 8.59Q67.96 8.19 67.77 8.11L67.77 8.11L67.77 8.11Q67.54 8.06 67.35 8.09L67.35 8.09L67.35 8.09Q67.27 8.11 67.20 8.13L67.20 8.13L67.20 8.13Q67.65 7.81 68.04 7.56L68.04 7.56L68.04 7.56Q68.38 7.35 68.73 7.17L68.73 7.17L68.73 7.17Q69.08 6.99 69.30 6.99L69.30 6.99L69.30 6.99Q69.45 6.99 69.55 7.02L69.55 7.02L69.55 7.02Q69.64 7.06 69.69 7.17L69.69 7.17L69.69 7.17Q69.73 7.29 69.75 7.50L69.75 7.50L69.75 7.50Q69.76 7.70 69.76 8.04L69.76 8.04L69.76 8.04Q70.43 7.55 71.09 7.27L71.09 7.27L71.09 7.27Q71.75 6.99 72.35 6.99ZM80.18 0.01L80.18 0.01L80.18 0.01Q81.34 0.01 82.22 0.41L82.22 0.41L82.22 0.41Q83.10 0.80 83.68 1.37L83.68 1.37L83.68 1.37Q84.25 1.93 84.51 2.57L84.51 2.57L84.51 2.57Q84.77 3.21 84.69 3.68L84.69 3.68L84.69 3.68Q84.69 3.08 84.32 2.46L84.32 2.46L84.32 2.46Q83.96 1.85 83.34 1.34L83.34 1.34L83.34 1.34Q82.71 0.84 81.91 0.53L81.91 0.53L81.91 0.53Q81.10 0.21 80.22 0.21L80.22 0.21L80.22 0.21Q79.59 0.21 78.85 0.41L78.85 0.41L78.85 0.41Q78.11 0.62 77.48 0.95L77.48 0.95L77.48 0.95Q76.85 1.27 76.43 1.69L76.43 1.69L76.43 1.69Q76.01 2.11 76.01 2.55L76.01 2.55L76.01 2.55Q76.01 2.93 76.24 3.35L76.24 3.35L76.24 3.35Q76.48 3.77 76.86 4.19L76.86 4.19L76.86 4.19Q77.24 4.61 77.71 5.00L77.71 5.00L77.71 5.00Q78.19 5.40 78.66 5.74L78.66 5.74L78.66 5.74Q79.13 6.08 79.56 6.34L79.56 6.34L79.56 6.34Q79.98 6.61 80.26 6.75L80.26 6.75L80.26 6.75Q80.67 6.96 81.26 7.20L81.26 7.20L81.26 7.20Q81.84 7.43 82.39 7.80L82.39 7.80L82.39 7.80Q82.94 8.16 83.32 8.72L83.32 8.72L83.32 8.72Q83.71 9.28 83.71 10.12L83.71 10.12L83.71 10.12Q83.71 10.58 83.57 10.96L83.57 10.96L83.57 10.96Q83.43 11.34 83.20 11.67L83.20 11.67L83.20 11.67Q82.96 12.00 82.66 12.29L82.66 12.29L82.66 12.29Q82.36 12.57 82.04 12.82L82.04 12.82L82.04 12.82Q81.37 13.37 80.76 13.69L80.76 13.69L80.76 13.69Q80.15 14.01 79.51 14.01L79.51 14.01L79.51 14.01Q78.96 14.01 78.51 13.79L78.51 13.79L78.51 13.79Q78.06 13.57 77.74 13.22L77.74 13.22L77.74 13.22Q77.42 12.87 77.25 12.43L77.25 12.43L77.25 12.43Q77.07 12.00 77.07 11.58L77.07 11.58L77.07 11.58Q77.07 10.98 77.21 10.57L77.21 10.57L77.21 10.57Q77.35 10.16 77.57 9.88L77.57 9.88L77.57 9.88Q77.80 9.60 78.09 9.41L78.09 9.41L78.09 9.41Q78.37 9.21 78.67 9.03L78.67 9.03L78.67 9.03Q78.95 8.82 79.24 8.65L79.24 8.65L79.24 8.65Q79.53 8.48 79.86 8.37L79.86 8.37L79.86 8.37Q79.35 8.13 78.88 7.88L78.88 7.88L78.88 7.88Q78.41 7.63 78.06 7.35L78.06 7.35L78.06 7.35Q77.67 7.08 77.07 6.66L77.07 6.66L77.07 6.66Q76.47 6.24 75.89 5.73L75.89 5.73L75.89 5.73Q75.32 5.22 74.91 4.65L74.91 4.65L74.91 4.65Q74.49 4.07 74.49 3.50L74.49 3.50L74.49 3.50Q74.49 3.08 74.80 2.65L74.80 2.65L74.80 2.65Q75.10 2.23 75.58 1.84L75.58 1.84L75.58 1.84Q76.06 1.46 76.69 1.12L76.69 1.12L76.69 1.12Q77.31 0.78 77.94 0.54L77.94 0.54L77.94 0.54Q78.57 0.29 79.16 0.15L79.16 0.15L79.16 0.15Q79.74 0.01 80.18 0.01ZM82.15 10.96L82.15 10.96L82.15 10.96Q82.15 10.54 81.98 10.19L81.98 10.19L81.98 10.19Q81.80 9.83 81.52 9.53L81.52 9.53L81.52 9.53Q81.23 9.23 80.84 8.97L80.84 8.97L80.84 8.97Q80.46 8.72 80.04 8.51L80.04 8.51L80.04 8.51Q79.79 8.55 79.52 8.70L79.52 8.70L79.52 8.70Q79.25 8.85 79.03 9.08L79.03 9.08L79.03 9.08Q78.81 9.31 78.67 9.63L78.67 9.63L78.67 9.63Q78.53 9.94 78.53 10.30L78.53 10.30L78.53 10.30Q78.53 10.75 78.69 11.17L78.69 11.17L78.69 11.17Q78.86 11.59 79.18 11.91L79.18 11.91L79.18 11.91Q79.49 12.24 79.95 12.44L79.95 12.44L79.95 12.44Q80.42 12.64 81.02 12.64L81.02 12.64L81.02 12.64Q81.49 12.64 81.73 12.52L81.73 12.52L81.73 12.52Q81.97 12.40 82.06 12.19L82.06 12.19L82.06 12.19Q82.15 11.97 82.15 11.66L82.15 11.66L82.15 11.66Q82.15 11.35 82.15 10.96ZM94.77 9.66L94.77 9.66L94.77 9.66Q94.77 10.08 94.93 10.59L94.93 10.59L94.93 10.59Q95.09 11.10 95.47 11.54L95.47 11.54L95.47 11.54Q95.84 11.98 96.45 12.29L96.45 12.29L96.45 12.29Q97.06 12.59 97.94 12.59L97.94 12.59L97.94 12.59Q98.41 12.59 98.67 12.46L98.67 12.46L98.67 12.46Q98.94 12.33 99.06 12.14L99.06 12.14L99.06 12.14Q99.19 11.96 99.23 11.75L99.23 11.75L99.23 11.75Q99.26 11.54 99.26 11.35L99.26 11.35L99.26 11.35Q99.26 10.75 99.03 10.16L99.03 10.16L99.03 10.16Q98.80 9.58 98.39 9.11L98.39 9.11L98.39 9.11Q97.99 8.65 97.43 8.37L97.43 8.37L97.43 8.37Q96.88 8.09 96.24 8.09L96.24 8.09L96.24 8.09Q95.82 8.09 95.54 8.25L95.54 8.25L95.54 8.25Q95.26 8.41 95.08 8.66L95.08 8.66L95.08 8.66Q94.91 8.90 94.84 9.18L94.84 9.18L94.84 9.18Q94.77 9.45 94.77 9.66ZM97.85 7L97.85 7L97.85 7Q98.27 7 98.75 7.18L98.75 7.18L98.75 7.18Q99.23 7.36 99.65 7.73L99.65 7.73L99.65 7.73Q100.06 8.09 100.32 8.66L100.32 8.66L100.32 8.66Q100.59 9.23 100.59 9.98L100.59 9.98L100.59 9.98Q100.59 10.42 100.39 10.88L100.39 10.88L100.39 10.88Q100.18 11.34 99.86 11.79L99.86 11.79L99.86 11.79Q99.53 12.24 99.10 12.63L99.10 12.63L99.10 12.63Q98.67 13.03 98.22 13.34L98.22 13.34L98.22 13.34Q97.76 13.64 97.31 13.82L97.31 13.82L97.31 13.82Q96.85 14 96.47 14L96.47 14L96.47 14Q95.90 14 95.38 13.76L95.38 13.76L95.38 13.76Q94.85 13.52 94.44 13.12L94.44 13.12L94.44 13.12Q94.04 12.71 93.79 12.19L93.79 12.19L93.79 12.19Q93.55 11.66 93.55 11.07L93.55 11.07L93.55 11.07Q93.55 10.28 93.98 9.54L93.98 9.54L93.98 9.54Q94.42 8.81 95.06 8.24L95.06 8.24L95.06 8.24Q95.70 7.67 96.45 7.34L96.45 7.34L96.45 7.34Q97.20 7 97.85 7ZM84.63 37.18L84.63 37.18L84.63 37.18Q84.74 36.62 84.94 36.05L84.94 36.05L84.94 36.05Q85.11 35.56 85.40 34.95L85.40 34.95L85.40 34.95Q85.69 34.34 86.14 33.74L86.14 33.74L86.14 33.74Q86.53 33.36 87.26 32.99L87.26 32.99L87.26 32.99Q87.99 32.62 88.92 32.33L88.92 32.33L88.92 32.33Q89.85 32.03 90.95 31.85L90.95 31.85L90.95 31.85Q92.05 31.67 93.18 31.67L93.18 31.67L93.18 31.67Q95.28 31.67 96.94 32.07L96.94 32.07L96.94 32.07Q98.60 32.47 99.83 33.00L99.83 33.00L99.83 33.00Q101.05 33.54 101.84 34.10L101.84 34.10L101.84 34.10Q102.62 34.65 102.96 34.94L102.96 34.94L102.96 34.94Q103.04 34.68 103.08 33.85L103.08 33.85L103.08 33.85Q103.12 33.03 103.14 31.84L103.14 31.84L103.14 31.84Q103.15 30.66 103.14 29.20L103.14 29.20L103.14 29.20Q103.12 27.73 103.10 26.19L103.10 26.19L103.10 26.19Q103.08 24.65 103.05 23.13L103.05 23.13L103.05 23.13Q103.01 21.60 102.98 20.28L102.98 20.28L102.98 20.28Q102.94 18.96 102.91 17.93L102.91 17.93L102.91 17.93Q102.89 16.90 102.87 16.37L102.87 16.37L102.87 16.37Q102.59 16.37 102.28 16.30L102.28 16.30L102.28 16.30Q101.98 16.23 101.71 16.13L101.71 16.13L101.71 16.13Q101.40 16.02 101.11 15.88L101.11 15.88L101.11 15.88Q101.42 15.90 101.74 15.86L101.74 15.86L101.74 15.86Q102.02 15.83 102.32 15.76L102.32 15.76L102.32 15.76Q102.62 15.68 102.87 15.50L102.87 15.50L102.87 15.50Q102.79 13.19 102.73 11.35L102.73 11.35L102.73 11.35Q102.66 9.52 102.61 8.04L102.61 8.04L102.61 8.04Q102.55 6.57 102.50 5.40L102.50 5.40L102.50 5.40Q102.45 4.24 102.42 3.29L102.42 3.29L102.42 3.29Q102.38 2.34 102.35 1.55L102.35 1.55L102.35 1.55Q102.33 0.76 102.30 0.01L102.30 0.01L102.30 0.01Q102.51 0.01 102.73-0.06L102.73-0.06L102.73-0.06Q102.94-0.14 103.21-0.31L103.21-0.31L103.21-0.31Q103.47-0.48 103.82-0.74L103.82-0.74L103.82-0.74Q104.16-1.01 104.62-1.39L104.62-1.39L104.62-1.39Q105.59-2.07 106.62-2.44L106.62-2.44L106.62-2.44Q107.66-2.80 108.88-2.80L108.88-2.80L108.88-2.80Q109.37-2.80 109.66-2.70L109.66-2.70L109.66-2.70Q109.96-2.59 110.14-2.46L110.14-2.46L110.14-2.46Q109.90-2.06 109.73-1.66L109.73-1.66L109.73-1.66Q109.55-1.26 109.44-0.87L109.44-0.87L109.44-0.87Q109.44 0.62 109.07 1.90L109.07 1.90L109.07 1.90Q108.71 3.18 108.11 4.25L108.11 4.25L108.11 4.25Q107.51 5.32 106.75 6.20L106.75 6.20L106.75 6.20Q105.99 7.08 105.20 7.77L105.20 7.77L105.20 7.77Q103.32 9.39 100.95 10.46L100.95 10.46L100.95 10.46Q103.28 9.35 105.11 7.73L105.11 7.73L105.11 7.73Q105.88 7.04 106.63 6.16L106.63 6.16L106.63 6.16Q107.38 5.28 107.97 4.21L107.97 4.21L107.97 4.21Q108.56 3.14 108.91 1.87L108.91 1.87L108.91 1.87Q109.27 0.60 109.27-0.87L109.27-0.87L109.27-0.87Q109.07-1.04 108.79-1.19L108.79-1.19L108.79-1.19Q108.54-1.30 108.16-1.41L108.16-1.41L108.16-1.41Q107.77-1.51 107.20-1.51L107.20-1.51L107.20-1.51Q106.41-1.51 105.88-1.37L105.88-1.37L105.88-1.37Q105.35-1.22 105.02-0.99L105.02-0.99L105.02-0.99Q104.69-0.76 104.52-0.47L104.52-0.47L104.52-0.47Q104.36-0.18 104.29 0.10L104.29 0.10L104.29 0.10Q104.20 0.45 104.14 1.35L104.14 1.35L104.14 1.35Q104.08 2.25 104.04 3.51L104.04 3.51L104.04 3.51Q104.01 4.76 103.99 6.27L103.99 6.27L103.99 6.27Q103.98 7.78 103.96 9.35L103.96 9.35L103.96 9.35Q103.95 10.92 103.94 12.46L103.94 12.46L103.94 12.46Q103.94 14 103.92 15.32L103.92 15.32L103.92 15.32Q104.38 15.51 104.93 15.57L104.93 15.57L104.93 15.57Q105.48 15.64 105.94 15.64L105.94 15.64L105.94 15.64Q106.48 15.64 107.03 15.58L107.03 15.58L107.03 15.58Q106.51 15.79 105.98 15.95L105.98 15.95L105.98 15.95Q105.52 16.09 104.97 16.21L104.97 16.21L104.97 16.21Q104.43 16.34 103.92 16.37L103.92 16.37L103.92 16.37Q103.91 17.23 103.89 18.53L103.89 18.53L103.89 18.53Q103.87 19.82 103.84 21.35L103.84 21.35L103.84 21.35Q103.81 22.88 103.77 24.55L103.77 24.55L103.77 24.55Q103.73 26.22 103.67 27.87L103.67 27.87L103.67 27.87Q103.61 29.51 103.53 31.05L103.53 31.05L103.53 31.05Q103.45 32.58 103.33 33.81L103.33 33.81L103.33 33.81Q103.21 35.04 103.05 35.89L103.05 35.89L103.05 35.89Q102.90 36.74 102.70 37.02L102.70 37.02L102.70 37.02Q102.27 36.54 101.58 36.08L101.58 36.08L101.58 36.08Q100.88 35.62 100.04 35.20L100.04 35.20L100.04 35.20Q99.19 34.78 98.22 34.43L98.22 34.43L98.22 34.43Q97.26 34.08 96.27 33.82L96.27 33.82L96.27 33.82Q95.28 33.56 94.33 33.41L94.33 33.41L94.33 33.41Q93.37 33.26 92.53 33.26L92.53 33.26L92.53 33.26Q91.14 33.26 90.06 33.43L90.06 33.43L90.06 33.43Q88.98 33.60 88.17 33.87L88.17 33.87L88.17 33.87Q87.35 34.15 86.77 34.50L86.77 34.50L86.77 34.50Q86.18 34.86 85.79 35.22L85.79 35.22L85.79 35.22Q84.87 36.09 84.63 37.18ZM122.53 9.65L122.53 9.65L122.53 9.65Q123.09 10.61 123.63 11.54L123.63 11.54L123.63 11.54Q124.18 12.46 124.71 13.17L124.71 13.17L124.71 13.17Q125.23 13.89 125.74 14.33L125.74 14.33L125.74 14.33Q126.25 14.77 126.74 14.77L126.74 14.77L126.70 14.87L126.70 14.87Q126.57 14.90 126.37 14.83L126.37 14.83L126.37 14.83Q126.17 14.76 125.94 14.63L125.94 14.63L125.94 14.63Q125.72 14.50 125.49 14.35L125.49 14.35L125.49 14.35Q125.26 14.20 125.08 14.08L125.08 14.08L125.08 14.08Q124.88 13.93 124.58 13.80L124.58 13.80L124.58 13.80Q124.28 13.66 123.94 13.52L123.94 13.52L123.94 13.52Q123.61 13.37 123.28 13.19L123.28 13.19L123.28 13.19Q122.96 13.01 122.72 12.77L122.72 12.77L122.72 12.77Q122.51 12.56 122.20 12.11L122.20 12.11L122.20 12.11Q121.88 11.66 121.51 11.09L121.51 11.09L121.51 11.09Q121.13 10.53 120.72 9.89L120.72 9.89L120.72 9.89Q120.32 9.25 119.94 8.64L119.94 8.64L119.94 8.64Q119.56 8.04 119.23 7.52L119.23 7.52L119.23 7.52Q118.90 7.01 118.68 6.69L118.68 6.69L118.68 6.69Q118.65 6.72 118.61 6.75L118.61 6.75L118.61 6.75Q118.57 6.79 118.50 6.85L118.50 6.85L118.50 7.24L118.50 7.24Q118.50 8.79 118.54 10.00L118.54 10.00L118.54 10.00Q118.58 11.21 118.64 12.05L118.64 12.05L118.64 12.05Q118.69 13.03 118.78 13.78L118.78 13.78L119.64 13.86L119.64 14L119.64 14Q119.42 13.97 119.13 13.93L119.13 13.93L119.13 13.93Q118.87 13.90 118.52 13.88L118.52 13.88L118.52 13.88Q118.17 13.86 117.73 13.86L117.73 13.86L117.73 13.86Q117.26 13.86 116.91 13.88L116.91 13.88L116.91 13.88Q116.55 13.90 116.31 13.93L116.31 13.93L116.31 13.93Q116.03 13.97 115.82 14L115.82 14L115.82 13.90L116.69 13.78L116.69 13.78Q116.82 12.82 116.93 11.63L116.93 11.63L116.93 11.63Q117.03 10.61 117.10 9.22L117.10 9.22L117.10 9.22Q117.18 7.83 117.18 6.13L117.18 6.13L117.18 6.13Q117.18 4.76 117.12 3.67L117.12 3.67L117.12 3.67Q117.07 2.58 117.00 1.82L117.00 1.82L117.00 1.82Q116.93 0.94 116.83 0.25L116.83 0.25L115.96 0.13L115.96-0.01L115.96-0.01Q116.20 0.03 116.48 0.06L116.48 0.06L116.48 0.06Q116.72 0.08 117.05 0.11L117.05 0.11L117.05 0.11Q117.38 0.13 117.77 0.13L117.77 0.13L117.77 0.13Q118.22 0.13 118.57 0.11L118.57 0.11L118.57 0.11Q118.92 0.08 119.18 0.06L119.18 0.06L119.18 0.06Q119.48 0.03 119.73-0.01L119.73-0.01L119.73 0.13L118.90 0.25L118.90 0.25Q118.82 1.08 118.75 2.06L118.75 2.06L118.75 2.06Q118.68 2.90 118.62 4.03L118.62 4.03L118.62 4.03Q118.57 5.15 118.55 6.43L118.55 6.43L118.55 6.43Q118.86 6.19 119.23 5.78L119.23 5.78L119.23 5.78Q119.60 5.36 120.00 4.85L120.00 4.85L120.00 4.85Q120.40 4.34 120.81 3.74L120.81 3.74L120.81 3.74Q121.21 3.15 121.58 2.54L121.58 2.54L121.58 2.54Q121.94 1.93 122.25 1.35L122.25 1.35L122.25 1.35Q122.56 0.77 122.77 0.27L122.77 0.27L122.21 0.13L122.21 0L122.21 0Q122.36 0.04 122.57 0.07L122.57 0.07L122.57 0.07Q122.75 0.10 123.03 0.11L123.03 0.11L123.03 0.11Q123.30 0.13 123.66 0.13L123.66 0.13L123.66 0.13Q124.11 0.13 124.43 0.11L124.43 0.11L124.43 0.11Q124.74 0.10 124.95 0.07L124.95 0.07L124.95 0.07Q125.20 0.04 125.37 0L125.37 0L125.37 0.13L124.68 0.27L124.68 0.27Q124.15 0.66 123.59 1.25L123.59 1.25L123.59 1.25Q123.03 1.83 122.44 2.53L122.44 2.53L122.44 2.53Q121.86 3.22 121.25 3.95L121.25 3.95L121.25 3.95Q120.65 4.68 120.04 5.35L120.04 5.35L120.04 5.35Q120.62 6.26 121.27 7.36L121.27 7.36L121.27 7.36Q121.91 8.47 122.53 9.65ZM129.07 5.24L129.07 5.24L129.07 5.24Q128.88 5.38 128.70 5.53L128.70 5.53L128.70 5.53Q128.55 5.67 128.36 5.85L128.36 5.85L128.36 5.85Q128.17 6.03 128.02 6.23L128.02 6.23L128.02 6.23Q127.86 5.98 127.69 5.80L127.69 5.80L127.69 5.80Q127.53 5.61 127.37 5.49L127.37 5.49L127.37 5.49Q127.20 5.33 127.04 5.24L127.04 5.24L127.04 5.24Q127.22 5.10 127.39 4.94L127.39 4.94L127.39 4.94Q127.54 4.80 127.71 4.62L127.71 4.62L127.71 4.62Q127.88 4.44 128.02 4.23L128.02 4.23L128.02 4.23Q128.17 4.47 128.35 4.65L128.35 4.65L128.35 4.65Q128.53 4.84 128.69 4.97L128.69 4.97L128.69 4.97Q128.87 5.12 129.07 5.24ZM126.81 8.12L126.81 8.12L126.81 8.12Q127.15 7.98 127.45 7.88L127.45 7.88L127.45 7.88Q127.75 7.77 128.02 7.65L128.02 7.65L128.02 7.65Q128.30 7.53 128.56 7.38L128.56 7.38L128.56 7.38Q128.81 7.24 129.07 7.01L129.07 7.01L129.07 7.01Q129.18 7.39 129.16 7.93L129.16 7.93L129.16 7.93Q129.15 8.47 129.10 9.06L129.10 9.06L129.10 9.06Q129.05 9.66 129.04 10.26L129.04 10.26L129.04 10.26Q129.02 10.86 129.14 11.35L129.14 11.35L129.14 11.35Q129.26 11.84 129.56 12.17L129.56 12.17L129.56 12.17Q129.86 12.50 130.47 12.56L130.47 12.56L130.47 12.56Q129.86 12.95 129.44 13.30L129.44 13.30L129.44 13.30Q129.01 13.65 128.59 14.01L128.59 14.01L128.59 14.01Q128.46 13.96 128.31 13.89L128.31 13.89L128.31 13.89Q128.16 13.82 128.02 13.69L128.02 13.69L128.02 13.69Q127.88 13.55 127.77 13.35L127.77 13.35L127.77 13.35Q127.67 13.15 127.65 12.82L127.65 12.82L127.65 12.82Q127.67 11.87 127.69 11.01L127.69 11.01L127.69 11.01Q127.72 10.15 127.67 9.50L127.67 9.50L127.67 9.50Q127.61 8.85 127.42 8.48L127.42 8.48L127.42 8.48Q127.23 8.11 126.81 8.12ZM141.15 7L141.15 7L141.15 7Q141.78 7 142.30 7.25L142.30 7.25L142.30 7.25Q142.81 7.50 143.19 7.92L143.19 7.92L143.19 7.92Q143.57 8.33 143.77 8.86L143.77 8.86L143.77 8.86Q143.98 9.39 143.98 9.95L143.98 9.95L143.98 9.95Q143.98 10.91 143.66 11.84L143.66 11.84L143.66 11.84Q143.35 12.78 142.73 13.52L142.73 13.52L142.73 13.52Q142.11 14.27 141.22 14.73L141.22 14.73L141.22 14.73Q140.32 15.20 139.15 15.20L139.15 15.20L139.15 15.20Q138.60 15.20 138.28 15.15L138.28 15.15L138.28 15.15Q137.96 15.11 137.68 15.04L137.68 15.04L137.68 15.04Q137.40 14.98 137.06 14.93L137.06 14.93L137.06 14.93Q136.72 14.88 136.15 14.88L136.15 14.88L136.15 14.88Q135.91 14.88 135.57 15.02L135.57 15.02L135.57 15.02Q135.23 15.16 134.90 15.42L134.90 15.42L134.90 15.42Q134.58 15.68 134.35 16.07L134.35 16.07L134.35 16.07Q134.12 16.46 134.12 16.97L134.12 16.97L134.12 16.97Q134.12 17.21 134.23 17.39L134.23 17.39L134.23 17.39Q134.34 17.58 134.53 17.72L134.53 17.72L134.53 17.72Q134.72 17.86 134.96 17.96L134.96 17.96L134.96 17.96Q135.20 18.06 135.45 18.13L135.45 18.13L135.45 18.13Q136.04 18.28 136.79 18.33L136.79 18.33L136.79 18.33Q136.00 18.31 135.38 18.16L135.38 18.16L135.38 18.16Q135.11 18.10 134.86 18.00L134.86 18.00L134.86 18.00Q134.61 17.91 134.41 17.76L134.41 17.76L134.41 17.76Q134.22 17.61 134.10 17.42L134.10 17.42L134.10 17.42Q133.98 17.22 133.98 16.97L133.98 16.97L133.98 16.97Q133.98 16.46 134.27 15.97L134.27 15.97L134.27 15.97Q134.57 15.48 135.06 15.10L135.06 15.10L135.06 15.10Q135.55 14.71 136.19 14.48L136.19 14.48L136.19 14.48Q136.84 14.24 137.54 14.24L137.54 14.24L137.54 14.24Q138.04 14.24 138.36 14.27L138.36 14.27L138.36 14.27Q138.67 14.31 138.96 14.35L138.96 14.35L138.96 14.35Q139.26 14.39 139.62 14.43L139.62 14.43L139.62 14.43Q139.97 14.46 140.57 14.46L140.57 14.46L140.57 14.46Q141.39 14.46 141.82 14.15L141.82 14.15L141.82 14.15Q142.25 13.85 142.45 13.38L142.45 13.38L142.45 13.38Q142.65 12.92 142.67 12.39L142.67 12.39L142.67 12.39Q142.69 11.86 142.69 11.42L142.69 11.42L142.69 11.42Q142.69 10.79 142.44 10.19L142.44 10.19L142.44 10.19Q142.18 9.59 141.76 9.13L141.76 9.13L141.76 9.13Q141.33 8.67 140.78 8.39L140.78 8.39L140.78 8.39Q140.22 8.11 139.62 8.11L139.62 8.11L139.62 8.11Q139.30 8.11 139.11 8.16L139.11 8.16L139.11 8.16Q138.92 8.22 138.81 8.27L138.81 8.27L138.81 8.27Q139.06 8.64 139.18 9.09L139.18 9.09L139.18 9.09Q139.30 9.55 139.30 9.95L139.30 9.95L139.30 9.95Q139.30 10.96 138.97 11.71L138.97 11.71L138.97 11.71Q138.64 12.46 138.25 12.96L138.25 12.96L138.25 12.96Q137.79 13.55 137.20 13.99L137.20 13.99L137.20 13.99Q137.40 13.64 137.55 13.22L137.55 13.22L137.55 13.22Q137.69 12.85 137.80 12.40L137.80 12.40L137.80 12.40Q137.91 11.94 137.91 11.42L137.91 11.42L137.91 11.42Q137.91 10.79 137.68 10.19L137.68 10.19L137.68 10.19Q137.44 9.59 137.03 9.13L137.03 9.13L137.03 9.13Q136.63 8.67 136.09 8.39L136.09 8.39L136.09 8.39Q135.56 8.11 134.96 8.11L134.96 8.11L134.96 8.11Q134.65 8.11 134.36 8.18L134.36 8.18L134.36 8.18Q134.06 8.26 133.90 8.46L133.90 8.46L133.90 8.46Q133.90 8.72 133.88 9.21L133.88 9.21L133.88 9.21Q133.85 9.70 133.85 10.35L133.85 10.35L133.85 10.35Q133.85 11.00 133.90 11.77L133.90 11.77L133.90 11.77Q133.94 12.54 134.06 13.37L134.06 13.37L134.06 13.37Q133.57 13.37 133.08 13.56L133.08 13.56L133.08 13.56Q132.58 13.75 132.20 13.99L132.20 13.99L132.20 13.99Q132.24 13.73 132.29 13.22L132.29 13.22L132.29 13.22Q132.33 12.70 132.36 12.07L132.36 12.07L132.36 12.07Q132.38 11.45 132.38 10.79L132.38 10.79L132.38 10.79Q132.38 10.12 132.34 9.55L132.34 9.55L132.34 9.55Q132.29 8.99 132.17 8.59L132.17 8.59L132.17 8.59Q132.06 8.19 131.88 8.11L131.88 8.11L131.88 8.11Q131.75 8.08 131.64 8.08L131.64 8.08L131.64 8.08Q131.52 8.08 131.40 8.09L131.40 8.09L131.40 8.09Q131.28 8.11 131.17 8.13L131.17 8.13L131.17 8.13Q131.64 7.83 132.08 7.57L132.08 7.57L132.08 7.57Q132.44 7.36 132.83 7.18L132.83 7.18L132.83 7.18Q133.21 7 133.42 7L133.42 7L133.42 7Q133.60 7 133.70 7.01L133.70 7.01L133.70 7.01Q133.80 7.03 133.84 7.13L133.84 7.13L133.84 7.13Q133.88 7.24 133.89 7.46L133.89 7.46L133.89 7.46Q133.90 7.69 133.90 8.11L133.90 8.11L133.90 8.11Q134.44 7.57 135.15 7.29L135.15 7.29L135.15 7.29Q135.86 7 136.49 7L136.49 7L136.49 7Q137.16 7 137.73 7.27L137.73 7.27L137.73 7.27Q138.31 7.55 138.66 8.02L138.66 8.02L138.66 8.02Q139.26 7.55 139.90 7.27L139.90 7.27L139.90 7.27Q140.55 7 141.15 7ZM146.41 9.66L146.41 9.66L146.41 9.66Q146.41 10.08 146.57 10.59L146.57 10.59L146.57 10.59Q146.73 11.10 147.11 11.54L147.11 11.54L147.11 11.54Q147.49 11.98 148.10 12.29L148.10 12.29L148.10 12.29Q148.71 12.59 149.59 12.59L149.59 12.59L149.59 12.59Q150.05 12.59 150.32 12.46L150.32 12.46L150.32 12.46Q150.58 12.33 150.71 12.14L150.71 12.14L150.71 12.14Q150.84 11.96 150.87 11.75L150.87 11.75L150.87 11.75Q150.91 11.54 150.91 11.35L150.91 11.35L150.91 11.35Q150.91 10.75 150.68 10.16L150.68 10.16L150.68 10.16Q150.44 9.58 150.04 9.11L150.04 9.11L150.04 9.11Q149.63 8.65 149.08 8.37L149.08 8.37L149.08 8.37Q148.53 8.09 147.88 8.09L147.88 8.09L147.88 8.09Q147.46 8.09 147.18 8.25L147.18 8.25L147.18 8.25Q146.90 8.41 146.73 8.66L146.73 8.66L146.73 8.66Q146.55 8.90 146.48 9.18L146.48 9.18L146.48 9.18Q146.41 9.45 146.41 9.66ZM149.49 7L149.49 7L149.49 7Q149.91 7 150.40 7.18L150.40 7.18L150.40 7.18Q150.88 7.36 151.29 7.73L151.29 7.73L151.29 7.73Q151.70 8.09 151.97 8.66L151.97 8.66L151.97 8.66Q152.24 9.23 152.24 9.98L152.24 9.98L152.24 9.98Q152.24 10.42 152.03 10.88L152.03 10.88L152.03 10.88Q151.83 11.34 151.50 11.79L151.50 11.79L151.50 11.79Q151.17 12.24 150.75 12.63L150.75 12.63L150.75 12.63Q150.32 13.03 149.86 13.34L149.86 13.34L149.86 13.34Q149.41 13.64 148.95 13.82L148.95 13.82L148.95 13.82Q148.50 14 148.12 14L148.12 14L148.12 14Q147.55 14 147.02 13.76L147.02 13.76L147.02 13.76Q146.50 13.52 146.09 13.12L146.09 13.12L146.09 13.12Q145.68 12.71 145.44 12.19L145.44 12.19L145.44 12.19Q145.19 11.66 145.19 11.07L145.19 11.07L145.19 11.07Q145.19 10.28 145.63 9.54L145.63 9.54L145.63 9.54Q146.06 8.81 146.71 8.24L146.71 8.24L146.71 8.24Q147.35 7.67 148.10 7.34L148.10 7.34L148.10 7.34Q148.85 7 149.49 7Z"></path></g><!----><!----><g data-v-423bf9ae="" id="dcc757b7-4631-4443-8728-88b678078bd9" fill="black" transform="matrix(5.763688845290021,0,0,5.763688845290021,-1.6138290368938897,113.97982207858686)"><path d="M0.28 5.32L0.28 5.32L0.28 5.32Q0.28 4.76 0.42 3.88L0.42 3.88L0.42 3.88Q0.42 3.85 0.43 3.78L0.43 3.78L0.43 3.78Q0.43 3.71 0.44 3.69L0.44 3.69L0.44 3.69Q0.45 3.67 0.46 3.62L0.46 3.62L0.46 3.62Q0.46 3.57 0.48 3.55L0.48 3.55L0.48 3.55Q0.49 3.53 0.51 3.49L0.51 3.49L0.51 3.49Q0.53 3.46 0.56 3.44L0.56 3.44L0.56 3.44Q0.59 3.43 0.63 3.42L0.63 3.42L0.63 3.42Q0.67 3.40 0.73 3.39L0.73 3.39L0.73 3.39Q0.78 3.39 0.85 3.39L0.85 3.39L0.85 3.39Q1.08 3.39 2.04 3.44L2.04 3.44L2.04 3.44Q3.00 3.50 4.80 3.50L4.80 3.50L4.80 3.50Q7.88 3.50 9.11 3.43L9.11 3.43L9.11 3.43Q9.13 3.43 9.16 3.42L9.16 3.42L9.16 3.42Q9.20 3.42 9.21 3.42L9.21 3.42L9.21 3.42Q9.37 3.42 9.42 3.50L9.42 3.50L9.42 3.50Q9.48 3.58 9.48 3.65L9.48 3.65L9.48 3.65Q9.48 3.75 9.52 4.24L9.52 4.24L9.52 4.24Q9.56 4.73 9.56 4.79L9.56 4.79L9.56 4.79Q9.56 5.14 9.52 5.23L9.52 5.23L9.52 5.23Q9.48 5.32 9.34 5.32L9.34 5.32L9.34 5.32Q9.23 5.32 9.18 5.15L9.18 5.15L9.18 5.15Q9.07 4.75 8.99 4.60L8.99 4.60L8.99 4.60Q8.90 4.45 8.62 4.34L8.62 4.34L8.62 4.34Q8.34 4.23 7.77 4.23L7.77 4.23L5.95 4.23L5.95 4.23Q5.61 4.23 5.54 4.36L5.54 4.36L5.54 4.36Q5.46 4.49 5.46 5.12L5.46 5.12L5.46 5.81L5.46 5.81Q5.46 7.69 5.44 9.11L5.44 9.11L5.44 9.11Q5.42 10.54 5.42 10.93L5.42 10.93L5.42 10.93Q5.42 11.13 5.41 11.43L5.41 11.43L5.41 11.43Q5.40 11.73 5.40 11.84L5.40 11.84L5.40 11.84Q5.40 12.45 5.60 12.64L5.60 12.64L5.60 12.64Q5.78 12.81 6.01 12.90L6.01 12.90L6.01 12.90Q6.23 12.99 6.39 13.01L6.39 13.01L6.39 13.01Q6.55 13.02 6.66 13.08L6.66 13.08L6.66 13.08Q6.78 13.13 6.78 13.26L6.78 13.26L6.78 13.26Q6.78 13.41 6.71 13.45L6.71 13.45L6.71 13.45Q6.64 13.50 6.44 13.50L6.44 13.50L6.44 13.50Q6.27 13.50 5.70 13.44L5.70 13.44L5.70 13.44Q5.12 13.38 4.89 13.38L4.89 13.38L4.89 13.38Q4.72 13.38 4.21 13.43L4.21 13.43L4.21 13.43Q3.70 13.48 3.46 13.48L3.46 13.48L3.46 13.48Q2.94 13.48 2.94 13.26L2.94 13.26L2.94 13.26Q2.94 13.12 3.02 13.07L3.02 13.07L3.02 13.07Q3.11 13.02 3.35 12.98L3.35 12.98L3.35 12.98Q3.60 12.95 3.67 12.94L3.67 12.94L3.67 12.94Q4.14 12.82 4.20 12.38L4.20 12.38L4.20 12.38Q4.34 11.14 4.34 7.08L4.34 7.08L4.33 4.58L4.33 4.58Q4.33 4.31 4.17 4.25L4.17 4.25L4.17 4.25Q4.02 4.19 3.26 4.19L3.26 4.19L3.26 4.19Q2.28 4.19 1.79 4.24L1.79 4.24L1.79 4.24Q1.29 4.30 1.20 4.35L1.20 4.35L1.20 4.35Q1.12 4.40 1.01 4.54L1.01 4.54L1.01 4.54Q0.88 4.70 0.81 4.91L0.81 4.91L0.81 4.91Q0.73 5.11 0.71 5.24L0.71 5.24L0.71 5.24Q0.69 5.38 0.62 5.47L0.62 5.47L0.62 5.47Q0.56 5.56 0.43 5.56L0.43 5.56L0.43 5.56Q0.28 5.56 0.28 5.32ZM17.12 3.65L17.12 3.65L17.12 3.65Q17.12 3.50 17.51 3.50L17.51 3.50L17.51 3.50Q17.65 3.50 18.16 3.53L18.16 3.53L18.16 3.53Q18.66 3.56 19.10 3.56L19.10 3.56L19.10 3.56Q19.36 3.56 19.61 3.54L19.61 3.54L19.61 3.54Q19.85 3.53 20.33 3.53L20.33 3.53L20.33 3.53Q20.64 3.53 20.64 3.72L20.64 3.72L20.64 3.72Q20.64 3.96 20.15 3.96L20.15 3.96L20.15 3.96Q19.87 3.96 19.74 4.54L19.74 4.54L19.74 4.54Q19.61 5.11 19.61 5.71L19.61 5.71L19.61 6.23L19.61 6.23Q19.61 6.57 19.60 6.99L19.60 6.99L19.60 6.99Q19.59 7.42 19.59 7.52L19.59 7.52L19.59 7.52Q19.59 7.87 19.67 7.97L19.67 7.97L19.67 7.97Q19.75 8.06 20.06 8.06L20.06 8.06L20.06 8.06Q20.09 8.06 20.61 8.06L20.61 8.06L20.61 8.06Q21.13 8.05 22.36 8.05L22.36 8.05L22.36 8.05Q22.47 8.05 22.74 8.06L22.74 8.06L22.74 8.06Q23.00 8.06 23.61 8.07L23.61 8.07L23.61 8.07Q24.22 8.08 25.00 8.08L25.00 8.08L25.00 8.08Q25.10 8.08 25.13 7.84L25.13 7.84L25.13 7.84Q25.16 7.56 25.16 6.13L25.16 6.13L25.16 5.38L25.16 5.38Q25.16 4.83 25.04 4.51L25.04 4.51L25.04 4.51Q24.92 4.19 24.74 4.09L24.74 4.09L24.74 4.09Q24.57 3.99 24.39 3.96L24.39 3.96L24.39 3.96Q24.22 3.93 24.10 3.88L24.10 3.88L24.10 3.88Q23.98 3.84 23.98 3.70L23.98 3.70L23.98 3.70Q23.98 3.56 24.53 3.56L24.53 3.56L24.53 3.56Q24.67 3.56 25.13 3.57L25.13 3.57L25.13 3.57Q25.59 3.58 25.89 3.58L25.89 3.58L25.89 3.58Q26.03 3.58 26.36 3.57L26.36 3.57L26.36 3.57Q26.70 3.56 26.98 3.56L26.98 3.56L26.98 3.56Q27.30 3.56 27.30 3.74L27.30 3.74L27.30 3.74Q27.30 3.92 27.10 3.92L27.10 3.92L27.10 3.92Q26.71 3.92 26.51 4.16L26.51 4.16L26.51 4.16Q26.31 4.40 26.31 4.79L26.31 4.79L26.31 4.79Q26.31 5.25 26.28 6.42L26.28 6.42L26.28 6.42Q26.26 7.59 26.26 8.19L26.26 8.19L26.26 8.19Q26.26 8.51 26.25 9.20L26.25 9.20L26.25 9.20Q26.24 9.90 26.24 10.29L26.24 10.29L26.24 10.81L26.24 10.81Q26.24 11.23 26.26 11.58L26.26 11.58L26.26 11.58Q26.29 11.94 26.29 12.10L26.29 12.10L26.29 12.10Q26.29 13.01 27.47 13.13L27.47 13.13L27.47 13.13Q27.64 13.13 27.64 13.29L27.64 13.29L27.64 13.29Q27.64 13.38 27.50 13.41L27.50 13.41L27.50 13.41Q27.36 13.44 26.95 13.44L26.95 13.44L26.95 13.44Q26.80 13.44 26.44 13.40L26.44 13.40L26.44 13.40Q26.08 13.37 25.87 13.37L25.87 13.37L25.87 13.37Q25.62 13.37 25.26 13.40L25.26 13.40L25.26 13.40Q24.91 13.44 24.56 13.44L24.56 13.44L24.56 13.44Q24.39 13.44 24.32 13.44L24.32 13.44L24.32 13.44Q24.25 13.44 24.17 13.42L24.17 13.42L24.17 13.42Q24.09 13.40 24.07 13.36L24.07 13.36L24.07 13.36Q24.05 13.33 24.05 13.26L24.05 13.26L24.05 13.26Q24.05 13.17 24.19 13.10L24.19 13.10L24.19 13.10Q24.33 13.03 24.50 12.99L24.50 12.99L24.50 12.99Q24.67 12.95 24.83 12.83L24.83 12.83L24.83 12.83Q24.99 12.71 25.02 12.53L25.02 12.53L25.02 12.53Q25.12 12.03 25.12 11.51L25.12 11.51L25.12 11.51Q25.12 11.37 25.12 11.12L25.12 11.12L25.12 11.12Q25.13 10.86 25.13 10.75L25.13 10.75L25.13 10.75Q25.13 10.50 25.14 9.93L25.14 9.93L25.14 9.93Q25.16 9.35 25.16 9.03L25.16 9.03L25.16 9.03Q25.16 8.82 24.99 8.74L24.99 8.74L24.99 8.74Q24.82 8.65 24.28 8.65L24.28 8.65L24.28 8.65Q24.07 8.65 23.31 8.68L23.31 8.68L22.55 8.69L22.55 8.69Q21.94 8.69 21.17 8.67L21.17 8.67L21.17 8.67Q20.40 8.65 19.98 8.65L19.98 8.65L19.98 8.65Q19.77 8.65 19.70 8.74L19.70 8.74L19.70 8.74Q19.63 8.82 19.63 9.17L19.63 9.17L19.63 9.17Q19.63 9.52 19.60 10.08L19.60 10.08L19.60 10.08Q19.57 10.64 19.57 10.89L19.57 10.89L19.57 11.49L19.57 11.49Q19.57 12.10 19.68 12.39L19.68 12.39L19.68 12.39Q19.80 12.68 20.23 12.96L20.23 12.96L20.23 12.96Q20.34 13.03 20.83 13.03L20.83 13.03L20.83 13.03Q20.93 13.03 21.01 13.08L21.01 13.08L21.01 13.08Q21.10 13.13 21.10 13.19L21.10 13.19L21.10 13.19Q21.10 13.44 20.65 13.44L20.65 13.44L20.65 13.44Q20.23 13.44 19.96 13.41L19.96 13.41L19.96 13.41Q19.68 13.38 19.49 13.38L19.49 13.38L19.49 13.38Q19.10 13.38 18.65 13.42L18.65 13.42L18.65 13.42Q18.20 13.45 17.98 13.45L17.98 13.45L17.98 13.45Q17.32 13.45 17.32 13.24L17.32 13.24L17.32 13.24Q17.32 13.12 17.45 13.07L17.45 13.07L17.45 13.07Q17.58 13.02 17.75 13.00L17.75 13.00L17.75 13.00Q17.92 12.98 18.10 12.82L18.10 12.82L18.10 12.82Q18.28 12.66 18.35 12.35L18.35 12.35L18.35 12.35Q18.40 12.11 18.47 10.91L18.47 10.91L18.47 10.91Q18.54 9.70 18.54 8.61L18.54 8.61L18.54 7.81L18.54 7.81Q18.54 7.63 18.54 7.12L18.54 7.12L18.54 7.12Q18.55 6.61 18.55 6.30L18.55 6.30L18.55 6.30Q18.55 5.24 18.47 4.63L18.47 4.63L18.47 4.63Q18.42 4.28 18.09 4.09L18.09 4.09L18.09 4.09Q17.77 3.89 17.42 3.89L17.42 3.89L17.42 3.89Q17.28 3.89 17.20 3.80L17.20 3.80L17.20 3.80Q17.12 3.71 17.12 3.65ZM35.20 3.65L35.20 3.65L35.20 3.65Q35.20 3.46 35.59 3.46L35.59 3.46L35.59 3.46Q35.64 3.46 35.77 3.47L35.77 3.47L35.77 3.47Q35.90 3.49 35.97 3.49L35.97 3.49L35.97 3.49Q36.01 3.49 37.28 3.52L37.28 3.52L37.28 3.52Q38.56 3.56 39.38 3.56L39.38 3.56L39.38 3.56Q39.68 3.56 40.83 3.53L40.83 3.53L40.83 3.53Q41.99 3.50 42.18 3.50L42.18 3.50L42.18 3.50Q42.45 3.50 42.45 3.82L42.45 3.82L42.45 3.82Q42.45 3.91 42.36 4.38L42.36 4.38L42.36 4.38Q42.28 4.84 42.28 5.25L42.28 5.25L42.28 5.25Q42.28 5.38 42.21 5.47L42.21 5.47L42.21 5.47Q42.14 5.56 42.06 5.56L42.06 5.56L42.06 5.56Q41.85 5.56 41.85 5.26L41.85 5.26L41.85 5.26Q41.85 4.89 41.61 4.58L41.61 4.58L41.61 4.58Q41.37 4.27 41.02 4.26L41.02 4.26L41.02 4.26Q39.76 4.16 39.09 4.16L39.09 4.16L38.72 4.16L38.72 4.16Q38.00 4.16 37.88 4.26L37.88 4.26L37.88 4.26Q37.76 4.37 37.73 5.01L37.73 5.01L37.73 5.01Q37.67 6.02 37.67 7.35L37.67 7.35L37.67 7.35Q37.67 8.05 37.94 8.06L37.94 8.06L38.29 8.06L38.88 8.06L39.31 8.06L39.31 8.06Q40.15 8.06 40.43 8.01L40.43 8.01L40.43 8.01Q40.71 7.95 40.94 7.80L40.94 7.80L40.94 7.80Q41.20 7.62 41.26 7.28L41.26 7.28L41.26 7.28Q41.30 7.04 41.45 7.04L41.45 7.04L41.45 7.04Q41.58 7.04 41.61 7.08L41.61 7.08L41.61 7.08Q41.64 7.13 41.64 7.27L41.64 7.27L41.64 7.27Q41.64 7.36 41.58 7.91L41.58 7.91L41.58 7.91Q41.52 8.46 41.52 8.74L41.52 8.74L41.52 8.74Q41.52 9.00 41.54 9.24L41.54 9.24L41.54 9.24Q41.57 9.48 41.57 9.59L41.57 9.59L41.57 9.59Q41.57 9.94 41.47 9.94L41.47 9.94L41.47 9.94Q41.26 9.94 41.16 9.60L41.16 9.60L41.16 9.60Q40.96 9.02 40.81 8.92L40.81 8.92L40.81 8.92Q40.52 8.72 39.47 8.72L39.47 8.72L39.47 8.72Q39.05 8.72 38.79 8.72L38.79 8.72L38.79 8.72Q38.53 8.72 38.45 8.71L38.45 8.71L38.45 8.71Q38.37 8.71 38.32 8.71L38.32 8.71L38.32 8.71Q38.28 8.71 38.23 8.71L38.23 8.71L38.23 8.71Q37.66 8.71 37.66 8.97L37.66 8.97L37.66 8.97Q37.66 9.38 37.65 9.99L37.65 9.99L37.65 9.99Q37.63 10.60 37.63 10.99L37.63 10.99L37.63 11.55L37.63 11.55Q37.63 12.56 37.97 12.66L37.97 12.66L37.97 12.66Q38.32 12.77 38.57 12.77L38.57 12.77L38.57 12.77Q39.62 12.77 40.41 12.67L40.41 12.67L40.41 12.67Q41.20 12.57 41.60 12.42L41.60 12.42L41.60 12.42Q42 12.28 42.27 12.10L42.27 12.10L42.27 12.10Q42.53 11.93 42.61 11.78L42.61 11.78L42.61 11.78Q42.69 11.63 42.76 11.54L42.76 11.54L42.76 11.54Q42.84 11.44 42.92 11.44L42.92 11.44L42.92 11.44Q43.09 11.44 43.09 11.68L43.09 11.68L43.09 11.68Q43.09 12.28 42.49 12.89L42.49 12.89L42.49 12.89Q41.89 13.51 41.44 13.51L41.44 13.51L41.44 13.51Q40.43 13.51 39.16 13.44L39.16 13.44L39.16 13.44Q37.90 13.37 37.59 13.37L37.59 13.37L37.59 13.37Q37.20 13.37 36.61 13.43L36.61 13.43L36.61 13.43Q36.02 13.50 35.69 13.50L35.69 13.50L35.69 13.50Q35.39 13.50 35.39 13.36L35.39 13.36L35.39 13.36Q35.39 13.23 35.39 13.19L35.39 13.19L35.39 13.19Q35.39 13.15 35.43 13.12L35.43 13.12L35.43 13.12Q35.48 13.09 35.52 13.08L35.52 13.08L35.52 13.08Q35.57 13.08 35.71 13.03L35.71 13.03L35.71 13.03Q35.84 12.99 35.99 12.92L35.99 12.92L35.99 12.92Q36.33 12.75 36.43 12.26L36.43 12.26L36.43 12.26Q36.54 11.77 36.54 10.21L36.54 10.21L36.54 8.47L36.54 8.47Q36.54 8.09 36.56 7.29L36.56 7.29L36.56 7.29Q36.58 6.50 36.58 6.05L36.58 6.05L36.58 6.05Q36.58 5.67 36.55 4.77L36.55 4.77L36.55 4.77Q36.54 4.37 36.20 4.14L36.20 4.14L36.20 4.14Q35.87 3.92 35.42 3.91L35.42 3.91L35.42 3.91Q35.20 3.91 35.20 3.65ZM60.63 3.77L60.63 3.77L60.63 3.77Q60.63 3.68 60.73 3.60L60.73 3.60L60.73 3.60Q60.83 3.53 60.98 3.53L60.98 3.53L60.98 3.53Q61.07 3.53 61.26 3.54L61.26 3.54L61.26 3.54Q61.46 3.54 61.52 3.54L61.52 3.54L61.52 3.54Q61.73 3.54 61.91 3.53L61.91 3.53L61.91 3.53Q62.09 3.51 62.20 3.51L62.20 3.51L62.20 3.51Q62.33 3.51 62.50 3.59L62.50 3.59L62.50 3.59Q62.66 3.67 62.69 3.75L62.69 3.75L62.69 3.75Q62.72 3.79 62.85 3.94L62.85 3.94L62.85 3.94Q62.97 4.09 63.18 4.33L63.18 4.33L63.18 4.33Q63.39 4.56 63.56 4.79L63.56 4.79L63.56 4.79Q65.46 7.27 68.66 10.77L68.66 10.77L68.66 10.77Q68.74 10.86 68.86 10.99L68.86 10.99L68.86 10.99Q68.98 11.12 69.03 11.18L69.03 11.18L69.03 11.18Q69.08 11.24 69.13 11.30L69.13 11.30L69.13 11.30Q69.19 11.35 69.22 11.38L69.22 11.38L69.22 11.38Q69.26 11.40 69.29 11.40L69.29 11.40L69.29 11.40Q69.43 11.40 69.43 10.53L69.43 10.53L69.43 8.89L69.43 8.89Q69.43 7.95 69.42 7.31L69.42 7.31L69.42 7.31Q69.41 6.66 69.41 6.38L69.41 6.38L69.41 6.38Q69.40 6.09 69.40 6.02L69.40 6.02L69.40 5.92L69.40 5.92Q69.40 5.45 69.33 5.11L69.33 5.11L69.33 5.11Q69.27 4.77 69.19 4.59L69.19 4.59L69.19 4.59Q69.10 4.41 68.94 4.28L68.94 4.28L68.94 4.28Q68.78 4.16 68.67 4.12L68.67 4.12L68.67 4.12Q68.56 4.09 68.35 4.05L68.35 4.05L68.35 4.05Q68.14 4.00 68.05 3.98L68.05 3.98L68.05 3.98Q67.77 3.89 67.77 3.74L67.77 3.74L67.77 3.74Q67.77 3.53 68.04 3.53L68.04 3.53L68.04 3.53Q68.12 3.53 68.71 3.54L68.71 3.54L68.71 3.54Q69.30 3.54 69.37 3.54L69.37 3.54L69.37 3.54Q69.71 3.54 70.12 3.53L70.12 3.53L70.12 3.53Q70.53 3.51 70.63 3.51L70.63 3.51L70.63 3.51Q70.87 3.51 70.96 3.56L70.96 3.56L70.96 3.56Q71.05 3.61 71.05 3.75L71.05 3.75L71.05 3.75Q71.05 3.81 70.97 3.86L70.97 3.86L70.97 3.86Q70.90 3.91 70.81 3.94L70.81 3.94L70.81 3.94Q70.73 3.98 70.64 4.00L70.64 4.00L70.56 4.03L70.56 4.03Q70.10 4.28 70.10 5.61L70.10 5.61L70.10 6.15L70.10 6.15Q70.10 7.21 70.02 9.83L70.02 9.83L70.02 9.83Q69.94 12.46 69.94 13.08L69.94 13.08L69.94 13.36L69.94 13.36Q69.94 13.68 69.75 13.68L69.75 13.68L69.75 13.68Q69.62 13.68 69.52 13.58L69.52 13.58L69.52 13.58Q64.88 8.19 63.97 7.17L63.97 7.17L63.97 7.17Q63.07 6.16 62.97 6.16L62.97 6.16L62.97 6.16Q62.83 6.16 62.83 7.11L62.83 7.11L62.83 7.11Q62.83 8.44 62.78 9.97L62.78 9.97L62.78 9.97Q62.72 11.51 62.72 11.65L62.72 11.65L62.72 11.65Q62.72 12.28 62.94 12.61L62.94 12.61L62.94 12.61Q63.15 12.94 63.41 12.98L63.41 12.98L63.41 12.98Q63.66 13.02 63.88 13.07L63.88 13.07L63.88 13.07Q64.09 13.12 64.09 13.26L64.09 13.26L64.09 13.26Q64.09 13.41 64.04 13.45L64.04 13.45L64.04 13.45Q63.99 13.50 63.87 13.50L63.87 13.50L63.87 13.50Q63.77 13.50 63.43 13.48L63.43 13.48L63.43 13.48Q63.08 13.47 62.37 13.47L62.37 13.47L62.37 13.47Q62.24 13.47 61.85 13.48L61.85 13.48L61.85 13.48Q61.46 13.50 61.18 13.50L61.18 13.50L61.18 13.50Q60.87 13.50 60.87 13.27L60.87 13.27L60.87 13.27Q60.87 13.15 61.05 13.11L61.05 13.11L61.05 13.11Q61.24 13.08 61.50 12.89L61.50 12.89L61.50 12.89Q61.77 12.71 61.91 12.21L61.91 12.21L61.91 12.21Q61.99 11.89 62.12 9.60L62.12 9.60L62.12 9.60Q62.24 7.32 62.24 6.45L62.24 6.45L62.24 6.45Q62.24 5.25 61.91 4.65L61.91 4.65L61.91 4.65Q61.57 4.06 60.82 3.98L60.82 3.98L60.82 3.98Q60.63 3.96 60.63 3.77ZM79.14 8.69L79.14 8.69L79.14 8.69Q79.14 6.34 80.56 4.84L80.56 4.84L80.56 4.84Q81.97 3.33 84.56 3.33L84.56 3.33L84.56 3.33Q85.76 3.33 86.73 3.68L86.73 3.68L86.73 3.68Q87.70 4.03 88.26 4.54L88.26 4.54L88.26 4.54Q88.82 5.05 89.19 5.71L89.19 5.71L89.19 5.71Q89.57 6.37 89.71 6.92L89.71 6.92L89.71 6.92Q89.85 7.48 89.85 7.95L89.85 7.95L89.85 7.95Q89.85 9.86 89.11 11.16L89.11 11.16L89.11 11.16Q88.37 12.47 87.16 13.07L87.16 13.07L87.16 13.07Q85.95 13.66 84.36 13.66L84.36 13.66L84.36 13.66Q82.70 13.66 81.49 12.94L81.49 12.94L81.49 12.94Q80.28 12.21 79.71 11.10L79.71 11.10L79.71 11.10Q79.14 10.00 79.14 8.69ZM80.37 7.98L80.37 7.98L80.37 7.98Q80.37 8.54 80.53 9.19L80.53 9.19L80.53 9.19Q80.68 9.84 81.03 10.54L81.03 10.54L81.03 10.54Q81.38 11.23 81.88 11.78L81.88 11.78L81.88 11.78Q82.38 12.33 83.14 12.69L83.14 12.69L83.14 12.69Q83.90 13.05 84.81 13.05L84.81 13.05L84.81 13.05Q85.29 13.05 85.81 12.90L85.81 12.90L85.81 12.90Q86.34 12.75 86.86 12.45L86.86 12.45L86.86 12.45Q87.37 12.14 87.78 11.70L87.78 11.70L87.78 11.70Q88.19 11.26 88.44 10.62L88.44 10.62L88.44 10.62Q88.70 9.98 88.70 9.24L88.70 9.24L88.70 9.24Q88.70 6.71 87.37 5.30L87.37 5.30L87.37 5.30Q86.04 3.89 84.08 3.89L84.08 3.89L84.08 3.89Q82.54 3.89 81.46 4.93L81.46 4.93L81.46 4.93Q80.37 5.96 80.37 7.98ZM97.75 3.70L97.75 3.70L97.75 3.70Q97.75 3.47 98.15 3.47L98.15 3.47L100.48 3.47L100.48 3.47Q100.80 3.47 101.22 3.45L101.22 3.45L101.22 3.45Q101.64 3.43 101.88 3.43L101.88 3.43L101.88 3.43Q103.14 3.43 104.03 4.07L104.03 4.07L104.03 4.07Q104.93 4.70 104.93 5.78L104.93 5.78L104.93 5.78Q104.93 6.50 104.66 7.03L104.66 7.03L104.66 7.03Q104.38 7.57 104.05 7.81L104.05 7.81L104.05 7.81Q103.73 8.05 103.45 8.22L103.45 8.22L103.45 8.22Q103.18 8.40 103.18 8.46L103.18 8.46L103.18 8.46Q103.18 8.62 104.36 10.27L104.36 10.27L104.36 10.27Q105.53 11.91 105.97 12.38L105.97 12.38L105.97 12.38Q106.50 13.03 107.25 13.03L107.25 13.03L107.25 13.03Q107.45 13.03 107.45 13.20L107.45 13.20L107.45 13.20Q107.45 13.41 107.28 13.48L107.28 13.48L107.28 13.48Q107.11 13.55 106.41 13.55L106.41 13.55L106.41 13.55Q105.76 13.55 105.21 13.23L105.21 13.23L105.21 13.23Q104.51 12.82 102.84 10.09L102.84 10.09L102.84 10.09Q102.75 9.94 102.70 9.87L102.70 9.87L102.70 9.87Q102.03 8.78 101.67 8.78L101.67 8.78L101.37 8.78L100.52 8.78L100.52 8.78Q100.35 8.78 100.32 8.92L100.32 8.92L100.32 8.92Q100.28 9.06 100.28 9.77L100.28 9.77L100.28 9.77Q100.28 10.44 100.28 10.88L100.28 10.88L100.28 10.88Q100.28 11.31 100.29 11.43L100.29 11.43L100.29 11.43Q100.30 11.55 100.30 11.63L100.30 11.63L100.30 11.63Q100.30 11.70 100.30 11.75L100.30 11.75L100.30 11.75Q100.30 12.32 100.56 12.63L100.56 12.63L100.56 12.63Q100.83 12.95 101.16 13.00L101.16 13.00L101.16 13.00Q101.49 13.05 101.75 13.11L101.75 13.11L101.75 13.11Q102.02 13.17 102.02 13.31L102.02 13.31L102.02 13.31Q102.02 13.54 101.77 13.54L101.77 13.54L101.77 13.54Q101.75 13.54 100.80 13.49L100.80 13.49L100.80 13.49Q99.85 13.44 99.76 13.44L99.76 13.44L99.76 13.44Q99.36 13.44 98.80 13.47L98.80 13.47L98.80 13.47Q98.24 13.50 98.22 13.50L98.22 13.50L98.22 13.50Q97.93 13.50 97.93 13.27L97.93 13.27L97.93 13.27Q97.93 13.12 98.11 13.05L98.11 13.05L98.11 13.05Q98.29 12.99 98.52 12.96L98.52 12.96L98.52 12.96Q98.74 12.94 98.92 12.66L98.92 12.66L98.92 12.66Q99.11 12.38 99.11 11.86L99.11 11.86L99.11 11.86Q99.11 11.49 99.11 9.90L99.11 9.90L99.11 9.90Q99.12 8.30 99.12 7.45L99.12 7.45L99.12 7.45Q99.12 6.58 99.11 5.86L99.11 5.86L99.11 5.86Q99.11 5.14 99.11 5.08L99.11 5.08L99.11 5.08Q99.11 4.56 98.90 4.29L98.90 4.29L98.90 4.29Q98.69 4.02 98.43 3.98L98.43 3.98L98.43 3.98Q98.17 3.95 97.96 3.89L97.96 3.89L97.96 3.89Q97.75 3.84 97.75 3.70ZM100.28 5.54L100.28 5.94L100.28 5.94Q100.28 7.38 100.30 7.72L100.30 7.72L100.30 7.72Q100.31 8.06 100.39 8.12L100.39 8.12L100.39 8.12Q100.60 8.25 101.00 8.25L101.00 8.25L101.14 8.25L101.54 8.25L101.54 8.25Q102.73 8.25 103.24 7.70L103.24 7.70L103.24 7.70Q103.75 7.15 103.75 6.30L103.75 6.30L103.75 6.30Q103.75 5.43 103.07 4.72L103.07 4.72L103.07 4.72Q102.40 4.00 101.02 4.00L101.02 4.00L101.02 4.00Q100.51 4.00 100.39 4.28L100.39 4.28L100.39 4.28Q100.28 4.55 100.28 5.54L100.28 5.54ZM113.57 5.32L113.57 5.32L113.57 5.32Q113.57 4.76 113.71 3.88L113.71 3.88L113.71 3.88Q113.71 3.85 113.71 3.78L113.71 3.78L113.71 3.78Q113.72 3.71 113.73 3.69L113.73 3.69L113.73 3.69Q113.74 3.67 113.74 3.62L113.74 3.62L113.74 3.62Q113.75 3.57 113.76 3.55L113.76 3.55L113.76 3.55Q113.78 3.53 113.80 3.49L113.80 3.49L113.80 3.49Q113.82 3.46 113.85 3.44L113.85 3.44L113.85 3.44Q113.88 3.43 113.92 3.42L113.92 3.42L113.92 3.42Q113.96 3.40 114.02 3.39L114.02 3.39L114.02 3.39Q114.07 3.39 114.14 3.39L114.14 3.39L114.14 3.39Q114.37 3.39 115.32 3.44L115.32 3.44L115.32 3.44Q116.28 3.50 118.09 3.50L118.09 3.50L118.09 3.50Q121.17 3.50 122.40 3.43L122.40 3.43L122.40 3.43Q122.42 3.43 122.45 3.42L122.45 3.42L122.45 3.42Q122.49 3.42 122.50 3.42L122.50 3.42L122.50 3.42Q122.65 3.42 122.71 3.50L122.71 3.50L122.71 3.50Q122.77 3.58 122.77 3.65L122.77 3.65L122.77 3.65Q122.77 3.75 122.81 4.24L122.81 4.24L122.81 4.24Q122.85 4.73 122.85 4.79L122.85 4.79L122.85 4.79Q122.85 5.14 122.81 5.23L122.81 5.23L122.81 5.23Q122.77 5.32 122.63 5.32L122.63 5.32L122.63 5.32Q122.51 5.32 122.47 5.15L122.47 5.15L122.47 5.15Q122.36 4.75 122.28 4.60L122.28 4.60L122.28 4.60Q122.19 4.45 121.91 4.34L121.91 4.34L121.91 4.34Q121.63 4.23 121.06 4.23L121.06 4.23L119.24 4.23L119.24 4.23Q118.90 4.23 118.82 4.36L118.82 4.36L118.82 4.36Q118.75 4.49 118.75 5.12L118.75 5.12L118.75 5.81L118.75 5.81Q118.75 7.69 118.73 9.11L118.73 9.11L118.73 9.11Q118.71 10.54 118.71 10.93L118.71 10.93L118.71 10.93Q118.71 11.13 118.70 11.43L118.70 11.43L118.70 11.43Q118.69 11.73 118.69 11.84L118.69 11.84L118.69 11.84Q118.69 12.45 118.89 12.64L118.89 12.64L118.89 12.64Q119.07 12.81 119.29 12.90L119.29 12.90L119.29 12.90Q119.52 12.99 119.68 13.01L119.68 13.01L119.68 13.01Q119.84 13.02 119.95 13.08L119.95 13.08L119.95 13.08Q120.06 13.13 120.06 13.26L120.06 13.26L120.06 13.26Q120.06 13.41 119.99 13.45L119.99 13.45L119.99 13.45Q119.92 13.50 119.73 13.50L119.73 13.50L119.73 13.50Q119.56 13.50 118.99 13.44L118.99 13.44L118.99 13.44Q118.41 13.38 118.17 13.38L118.17 13.38L118.17 13.38Q118.01 13.38 117.49 13.43L117.49 13.43L117.49 13.43Q116.98 13.48 116.75 13.48L116.75 13.48L116.75 13.48Q116.23 13.48 116.23 13.26L116.23 13.26L116.23 13.26Q116.23 13.12 116.31 13.07L116.31 13.07L116.31 13.07Q116.40 13.02 116.64 12.98L116.64 12.98L116.64 12.98Q116.89 12.95 116.96 12.94L116.96 12.94L116.96 12.94Q117.43 12.82 117.49 12.38L117.49 12.38L117.49 12.38Q117.63 11.14 117.63 7.08L117.63 7.08L117.61 4.58L117.61 4.58Q117.61 4.31 117.46 4.25L117.46 4.25L117.46 4.25Q117.31 4.19 116.55 4.19L116.55 4.19L116.55 4.19Q115.57 4.19 115.07 4.24L115.07 4.24L115.07 4.24Q114.58 4.30 114.49 4.35L114.49 4.35L114.49 4.35Q114.41 4.40 114.30 4.54L114.30 4.54L114.30 4.54Q114.17 4.70 114.09 4.91L114.09 4.91L114.09 4.91Q114.02 5.11 113.99 5.24L113.99 5.24L113.99 5.24Q113.97 5.38 113.91 5.47L113.91 5.47L113.91 5.47Q113.85 5.56 113.72 5.56L113.72 5.56L113.72 5.56Q113.57 5.56 113.57 5.32ZM130.41 3.65L130.41 3.65L130.41 3.65Q130.41 3.50 130.80 3.50L130.80 3.50L130.80 3.50Q130.94 3.50 131.45 3.53L131.45 3.53L131.45 3.53Q131.95 3.56 132.38 3.56L132.38 3.56L132.38 3.56Q132.65 3.56 132.89 3.54L132.89 3.54L132.89 3.54Q133.14 3.53 133.62 3.53L133.62 3.53L133.62 3.53Q133.92 3.53 133.92 3.72L133.92 3.72L133.92 3.72Q133.92 3.96 133.43 3.96L133.43 3.96L133.43 3.96Q133.15 3.96 133.03 4.54L133.03 4.54L133.03 4.54Q132.90 5.11 132.90 5.71L132.90 5.71L132.90 6.23L132.90 6.23Q132.90 6.57 132.89 6.99L132.89 6.99L132.89 6.99Q132.87 7.42 132.87 7.52L132.87 7.52L132.87 7.52Q132.87 7.87 132.96 7.97L132.96 7.97L132.96 7.97Q133.04 8.06 133.35 8.06L133.35 8.06L133.35 8.06Q133.38 8.06 133.90 8.06L133.90 8.06L133.90 8.06Q134.41 8.05 135.65 8.05L135.65 8.05L135.65 8.05Q135.76 8.05 136.02 8.06L136.02 8.06L136.02 8.06Q136.29 8.06 136.90 8.07L136.90 8.07L136.90 8.07Q137.51 8.08 138.29 8.08L138.29 8.08L138.29 8.08Q138.39 8.08 138.42 7.84L138.42 7.84L138.42 7.84Q138.45 7.56 138.45 6.13L138.45 6.13L138.45 5.38L138.45 5.38Q138.45 4.83 138.33 4.51L138.33 4.51L138.33 4.51Q138.21 4.19 138.03 4.09L138.03 4.09L138.03 4.09Q137.86 3.99 137.68 3.96L137.68 3.96L137.68 3.96Q137.51 3.93 137.39 3.88L137.39 3.88L137.39 3.88Q137.27 3.84 137.27 3.70L137.27 3.70L137.27 3.70Q137.27 3.56 137.82 3.56L137.82 3.56L137.82 3.56Q137.96 3.56 138.42 3.57L138.42 3.57L138.42 3.57Q138.88 3.58 139.17 3.58L139.17 3.58L139.17 3.58Q139.31 3.58 139.65 3.57L139.65 3.57L139.65 3.57Q139.99 3.56 140.27 3.56L140.27 3.56L140.27 3.56Q140.59 3.56 140.59 3.74L140.59 3.74L140.59 3.74Q140.59 3.92 140.39 3.92L140.39 3.92L140.39 3.92Q140 3.92 139.80 4.16L139.80 4.16L139.80 4.16Q139.59 4.40 139.59 4.79L139.59 4.79L139.59 4.79Q139.59 5.25 139.57 6.42L139.57 6.42L139.57 6.42Q139.55 7.59 139.55 8.19L139.55 8.19L139.55 8.19Q139.55 8.51 139.54 9.20L139.54 9.20L139.54 9.20Q139.52 9.90 139.52 10.29L139.52 10.29L139.52 10.81L139.52 10.81Q139.52 11.23 139.55 11.58L139.55 11.58L139.55 11.58Q139.58 11.94 139.58 12.10L139.58 12.10L139.58 12.10Q139.58 13.01 140.76 13.13L140.76 13.13L140.76 13.13Q140.92 13.13 140.92 13.29L140.92 13.29L140.92 13.29Q140.92 13.38 140.78 13.41L140.78 13.41L140.78 13.41Q140.64 13.44 140.24 13.44L140.24 13.44L140.24 13.44Q140.08 13.44 139.73 13.40L139.73 13.40L139.73 13.40Q139.37 13.37 139.16 13.37L139.16 13.37L139.16 13.37Q138.91 13.37 138.55 13.40L138.55 13.40L138.55 13.40Q138.19 13.44 137.84 13.44L137.84 13.44L137.84 13.44Q137.68 13.44 137.61 13.44L137.61 13.44L137.61 13.44Q137.54 13.44 137.46 13.42L137.46 13.42L137.46 13.42Q137.38 13.40 137.36 13.36L137.36 13.36L137.36 13.36Q137.34 13.33 137.34 13.26L137.34 13.26L137.34 13.26Q137.34 13.17 137.48 13.10L137.48 13.10L137.48 13.10Q137.62 13.03 137.79 12.99L137.79 12.99L137.79 12.99Q137.96 12.95 138.12 12.83L138.12 12.83L138.12 12.83Q138.28 12.71 138.31 12.53L138.31 12.53L138.31 12.53Q138.40 12.03 138.40 11.51L138.40 11.51L138.40 11.51Q138.40 11.37 138.41 11.12L138.41 11.12L138.41 11.12Q138.42 10.86 138.42 10.75L138.42 10.75L138.42 10.75Q138.42 10.50 138.43 9.93L138.43 9.93L138.43 9.93Q138.45 9.35 138.45 9.03L138.45 9.03L138.45 9.03Q138.45 8.82 138.28 8.74L138.28 8.74L138.28 8.74Q138.11 8.65 137.56 8.65L137.56 8.65L137.56 8.65Q137.35 8.65 136.60 8.68L136.60 8.68L135.84 8.69L135.84 8.69Q135.23 8.69 134.46 8.67L134.46 8.67L134.46 8.67Q133.69 8.65 133.27 8.65L133.27 8.65L133.27 8.65Q133.06 8.65 132.99 8.74L132.99 8.74L132.99 8.74Q132.92 8.82 132.92 9.17L132.92 9.17L132.92 9.17Q132.92 9.52 132.89 10.08L132.89 10.08L132.89 10.08Q132.86 10.64 132.86 10.89L132.86 10.89L132.86 11.49L132.86 11.49Q132.86 12.10 132.97 12.39L132.97 12.39L132.97 12.39Q133.08 12.68 133.52 12.96L133.52 12.96L133.52 12.96Q133.63 13.03 134.12 13.03L134.12 13.03L134.12 13.03Q134.22 13.03 134.30 13.08L134.30 13.08L134.30 13.08Q134.39 13.13 134.39 13.19L134.39 13.19L134.39 13.19Q134.39 13.44 133.94 13.44L133.94 13.44L133.94 13.44Q133.52 13.44 133.25 13.41L133.25 13.41L133.25 13.41Q132.97 13.38 132.78 13.38L132.78 13.38L132.78 13.38Q132.38 13.38 131.94 13.42L131.94 13.42L131.94 13.42Q131.49 13.45 131.26 13.45L131.26 13.45L131.26 13.45Q130.61 13.45 130.61 13.24L130.61 13.24L130.61 13.24Q130.61 13.12 130.74 13.07L130.74 13.07L130.74 13.07Q130.87 13.02 131.04 13.00L131.04 13.00L131.04 13.00Q131.21 12.98 131.39 12.82L131.39 12.82L131.39 12.82Q131.57 12.66 131.64 12.35L131.64 12.35L131.64 12.35Q131.68 12.11 131.75 10.91L131.75 10.91L131.75 10.91Q131.82 9.70 131.82 8.61L131.82 8.61L131.82 7.81L131.82 7.81Q131.82 7.63 131.83 7.12L131.83 7.12L131.83 7.12Q131.84 6.61 131.84 6.30L131.84 6.30L131.84 6.30Q131.84 5.24 131.75 4.63L131.75 4.63L131.75 4.63Q131.71 4.28 131.38 4.09L131.38 4.09L131.38 4.09Q131.05 3.89 130.70 3.89L130.70 3.89L130.70 3.89Q130.56 3.89 130.49 3.80L130.49 3.80L130.49 3.80Q130.41 3.71 130.41 3.65ZM148.48 3.65L148.48 3.65L148.48 3.65Q148.48 3.46 148.88 3.46L148.88 3.46L148.88 3.46Q148.93 3.46 149.06 3.47L149.06 3.47L149.06 3.47Q149.18 3.49 149.25 3.49L149.25 3.49L149.25 3.49Q149.30 3.49 150.57 3.52L150.57 3.52L150.57 3.52Q151.84 3.56 152.67 3.56L152.67 3.56L152.67 3.56Q152.96 3.56 154.12 3.53L154.12 3.53L154.12 3.53Q155.27 3.50 155.47 3.50L155.47 3.50L155.47 3.50Q155.74 3.50 155.74 3.82L155.74 3.82L155.74 3.82Q155.74 3.91 155.65 4.38L155.65 4.38L155.65 4.38Q155.57 4.84 155.57 5.25L155.57 5.25L155.57 5.25Q155.57 5.38 155.50 5.47L155.50 5.47L155.50 5.47Q155.43 5.56 155.34 5.56L155.34 5.56L155.34 5.56Q155.13 5.56 155.13 5.26L155.13 5.26L155.13 5.26Q155.13 4.89 154.90 4.58L154.90 4.58L154.90 4.58Q154.66 4.27 154.31 4.26L154.31 4.26L154.31 4.26Q153.05 4.16 152.38 4.16L152.38 4.16L152.01 4.16L152.01 4.16Q151.28 4.16 151.17 4.26L151.17 4.26L151.17 4.26Q151.05 4.37 151.02 5.01L151.02 5.01L151.02 5.01Q150.96 6.02 150.96 7.35L150.96 7.35L150.96 7.35Q150.96 8.05 151.23 8.06L151.23 8.06L151.58 8.06L152.17 8.06L152.60 8.06L152.60 8.06Q153.44 8.06 153.72 8.01L153.72 8.01L153.72 8.01Q154 7.95 154.22 7.80L154.22 7.80L154.22 7.80Q154.49 7.62 154.55 7.28L154.55 7.28L154.55 7.28Q154.59 7.04 154.74 7.04L154.74 7.04L154.74 7.04Q154.87 7.04 154.90 7.08L154.90 7.08L154.90 7.08Q154.92 7.13 154.92 7.27L154.92 7.27L154.92 7.27Q154.92 7.36 154.87 7.91L154.87 7.91L154.87 7.91Q154.81 8.46 154.81 8.74L154.81 8.74L154.81 8.74Q154.81 9.00 154.83 9.24L154.83 9.24L154.83 9.24Q154.85 9.48 154.85 9.59L154.85 9.59L154.85 9.59Q154.85 9.94 154.76 9.94L154.76 9.94L154.76 9.94Q154.55 9.94 154.45 9.60L154.45 9.60L154.45 9.60Q154.25 9.02 154.10 8.92L154.10 8.92L154.10 8.92Q153.80 8.72 152.75 8.72L152.75 8.72L152.75 8.72Q152.33 8.72 152.08 8.72L152.08 8.72L152.08 8.72Q151.82 8.72 151.74 8.71L151.74 8.71L151.74 8.71Q151.66 8.71 151.61 8.71L151.61 8.71L151.61 8.71Q151.56 8.71 151.52 8.71L151.52 8.71L151.52 8.71Q150.95 8.71 150.95 8.97L150.95 8.97L150.95 8.97Q150.95 9.38 150.93 9.99L150.93 9.99L150.93 9.99Q150.92 10.60 150.92 10.99L150.92 10.99L150.92 11.55L150.92 11.55Q150.92 12.56 151.26 12.66L151.26 12.66L151.26 12.66Q151.61 12.77 151.86 12.77L151.86 12.77L151.86 12.77Q152.91 12.77 153.70 12.67L153.70 12.67L153.70 12.67Q154.49 12.57 154.89 12.42L154.89 12.42L154.89 12.42Q155.29 12.28 155.55 12.10L155.55 12.10L155.55 12.10Q155.82 11.93 155.90 11.78L155.90 11.78L155.90 11.78Q155.97 11.63 156.05 11.54L156.05 11.54L156.05 11.54Q156.13 11.44 156.21 11.44L156.21 11.44L156.21 11.44Q156.38 11.44 156.38 11.68L156.38 11.68L156.38 11.68Q156.38 12.28 155.78 12.89L155.78 12.89L155.78 12.89Q155.18 13.51 154.73 13.51L154.73 13.51L154.73 13.51Q153.72 13.51 152.45 13.44L152.45 13.44L152.45 13.44Q151.19 13.37 150.88 13.37L150.88 13.37L150.88 13.37Q150.49 13.37 149.90 13.43L149.90 13.43L149.90 13.43Q149.31 13.50 148.97 13.50L148.97 13.50L148.97 13.50Q148.68 13.50 148.68 13.36L148.68 13.36L148.68 13.36Q148.68 13.23 148.68 13.19L148.68 13.19L148.68 13.19Q148.68 13.15 148.72 13.12L148.72 13.12L148.72 13.12Q148.76 13.09 148.81 13.08L148.81 13.08L148.81 13.08Q148.86 13.08 149.00 13.03L149.00 13.03L149.00 13.03Q149.13 12.99 149.28 12.92L149.28 12.92L149.28 12.92Q149.62 12.75 149.72 12.26L149.72 12.26L149.72 12.26Q149.83 11.77 149.83 10.21L149.83 10.21L149.83 8.47L149.83 8.47Q149.83 8.09 149.85 7.29L149.85 7.29L149.85 7.29Q149.87 6.50 149.87 6.05L149.87 6.05L149.87 6.05Q149.87 5.67 149.84 4.77L149.84 4.77L149.84 4.77Q149.83 4.37 149.49 4.14L149.49 4.14L149.49 4.14Q149.16 3.92 148.71 3.91L148.71 3.91L148.71 3.91Q148.48 3.91 148.48 3.65ZM163.94 3.70L163.94 3.70L163.94 3.70Q163.94 3.47 164.35 3.47L164.35 3.47L166.67 3.47L166.67 3.47Q166.99 3.47 167.41 3.45L167.41 3.45L167.41 3.45Q167.83 3.43 168.07 3.43L168.07 3.43L168.07 3.43Q169.33 3.43 170.23 4.07L170.23 4.07L170.23 4.07Q171.12 4.70 171.12 5.78L171.12 5.78L171.12 5.78Q171.12 6.50 170.85 7.03L170.85 7.03L170.85 7.03Q170.58 7.57 170.25 7.81L170.25 7.81L170.25 7.81Q169.92 8.05 169.65 8.22L169.65 8.22L169.65 8.22Q169.37 8.40 169.37 8.46L169.37 8.46L169.37 8.46Q169.37 8.62 170.55 10.27L170.55 10.27L170.55 10.27Q171.72 11.91 172.16 12.38L172.16 12.38L172.16 12.38Q172.69 13.03 173.45 13.03L173.45 13.03L173.45 13.03Q173.64 13.03 173.64 13.20L173.64 13.20L173.64 13.20Q173.64 13.41 173.47 13.48L173.47 13.48L173.47 13.48Q173.31 13.55 172.61 13.55L172.61 13.55L172.61 13.55Q171.95 13.55 171.40 13.23L171.40 13.23L171.40 13.23Q170.70 12.82 169.04 10.09L169.04 10.09L169.04 10.09Q168.94 9.94 168.90 9.87L168.90 9.87L168.90 9.87Q168.22 8.78 167.86 8.78L167.86 8.78L167.57 8.78L166.71 8.78L166.71 8.78Q166.54 8.78 166.51 8.92L166.51 8.92L166.51 8.92Q166.47 9.06 166.47 9.77L166.47 9.77L166.47 9.77Q166.47 10.44 166.47 10.88L166.47 10.88L166.47 10.88Q166.47 11.31 166.48 11.43L166.48 11.43L166.48 11.43Q166.49 11.55 166.49 11.63L166.49 11.63L166.49 11.63Q166.49 11.70 166.49 11.75L166.49 11.75L166.49 11.75Q166.49 12.32 166.75 12.63L166.75 12.63L166.75 12.63Q167.02 12.95 167.35 13.00L167.35 13.00L167.35 13.00Q167.68 13.05 167.94 13.11L167.94 13.11L167.94 13.11Q168.21 13.17 168.21 13.31L168.21 13.31L168.21 13.31Q168.21 13.54 167.96 13.54L167.96 13.54L167.96 13.54Q167.94 13.54 166.99 13.49L166.99 13.49L166.99 13.49Q166.04 13.44 165.96 13.44L165.96 13.44L165.96 13.44Q165.55 13.44 164.99 13.47L164.99 13.47L164.99 13.47Q164.43 13.50 164.42 13.50L164.42 13.50L164.42 13.50Q164.12 13.50 164.12 13.27L164.12 13.27L164.12 13.27Q164.12 13.12 164.30 13.05L164.30 13.05L164.30 13.05Q164.49 12.99 164.71 12.96L164.71 12.96L164.71 12.96Q164.93 12.94 165.12 12.66L165.12 12.66L165.12 12.66Q165.30 12.38 165.30 11.86L165.30 11.86L165.30 11.86Q165.30 11.49 165.31 9.90L165.31 9.90L165.31 9.90Q165.31 8.30 165.31 7.45L165.31 7.45L165.31 7.45Q165.31 6.58 165.31 5.86L165.31 5.86L165.31 5.86Q165.30 5.14 165.30 5.08L165.30 5.08L165.30 5.08Q165.30 4.56 165.09 4.29L165.09 4.29L165.09 4.29Q164.88 4.02 164.62 3.98L164.62 3.98L164.62 3.98Q164.36 3.95 164.15 3.89L164.15 3.89L164.15 3.89Q163.94 3.84 163.94 3.70ZM166.47 5.54L166.47 5.94L166.47 5.94Q166.47 7.38 166.49 7.72L166.49 7.72L166.49 7.72Q166.50 8.06 166.59 8.12L166.59 8.12L166.59 8.12Q166.80 8.25 167.19 8.25L167.19 8.25L167.33 8.25L167.73 8.25L167.73 8.25Q168.92 8.25 169.44 7.70L169.44 7.70L169.44 7.70Q169.95 7.15 169.95 6.30L169.95 6.30L169.95 6.30Q169.95 5.43 169.27 4.72L169.27 4.72L169.27 4.72Q168.59 4.00 167.22 4.00L167.22 4.00L167.22 4.00Q166.70 4.00 166.59 4.28L166.59 4.28L166.59 4.28Q166.47 4.55 166.47 5.54L166.47 5.54ZM180.99 3.77L180.99 3.77L180.99 3.77Q180.99 3.68 181.09 3.60L181.09 3.60L181.09 3.60Q181.19 3.53 181.34 3.53L181.34 3.53L181.34 3.53Q181.43 3.53 181.62 3.54L181.62 3.54L181.62 3.54Q181.82 3.54 181.87 3.54L181.87 3.54L181.87 3.54Q182.08 3.54 182.27 3.53L182.27 3.53L182.27 3.53Q182.45 3.51 182.56 3.51L182.56 3.51L182.56 3.51Q182.69 3.51 182.85 3.59L182.85 3.59L182.85 3.59Q183.02 3.67 183.05 3.75L183.05 3.75L183.05 3.75Q183.08 3.79 183.20 3.94L183.20 3.94L183.20 3.94Q183.33 4.09 183.54 4.33L183.54 4.33L183.54 4.33Q183.75 4.56 183.92 4.79L183.92 4.79L183.92 4.79Q185.82 7.27 189.01 10.77L189.01 10.77L189.01 10.77Q189.10 10.86 189.22 10.99L189.22 10.99L189.22 10.99Q189.34 11.12 189.38 11.18L189.38 11.18L189.38 11.18Q189.43 11.24 189.49 11.30L189.49 11.30L189.49 11.30Q189.55 11.35 189.58 11.38L189.58 11.38L189.58 11.38Q189.62 11.40 189.64 11.40L189.64 11.40L189.64 11.40Q189.78 11.40 189.78 10.53L189.78 10.53L189.78 8.89L189.78 8.89Q189.78 7.95 189.78 7.31L189.78 7.31L189.78 7.31Q189.77 6.66 189.76 6.38L189.76 6.38L189.76 6.38Q189.76 6.09 189.76 6.02L189.76 6.02L189.76 5.92L189.76 5.92Q189.76 5.45 189.69 5.11L189.69 5.11L189.69 5.11Q189.63 4.77 189.55 4.59L189.55 4.59L189.55 4.59Q189.46 4.41 189.30 4.28L189.30 4.28L189.30 4.28Q189.14 4.16 189.03 4.12L189.03 4.12L189.03 4.12Q188.92 4.09 188.71 4.05L188.71 4.05L188.71 4.05Q188.50 4.00 188.41 3.98L188.41 3.98L188.41 3.98Q188.13 3.89 188.13 3.74L188.13 3.74L188.13 3.74Q188.13 3.53 188.40 3.53L188.40 3.53L188.40 3.53Q188.48 3.53 189.07 3.54L189.07 3.54L189.07 3.54Q189.66 3.54 189.73 3.54L189.73 3.54L189.73 3.54Q190.06 3.54 190.48 3.53L190.48 3.53L190.48 3.53Q190.89 3.51 190.99 3.51L190.99 3.51L190.99 3.51Q191.23 3.51 191.32 3.56L191.32 3.56L191.32 3.56Q191.41 3.61 191.41 3.75L191.41 3.75L191.41 3.75Q191.41 3.81 191.33 3.86L191.33 3.86L191.33 3.86Q191.25 3.91 191.17 3.94L191.17 3.94L191.17 3.94Q191.09 3.98 191.00 4.00L191.00 4.00L190.92 4.03L190.92 4.03Q190.46 4.28 190.46 5.61L190.46 5.61L190.46 6.15L190.46 6.15Q190.46 7.21 190.38 9.83L190.38 9.83L190.38 9.83Q190.30 12.46 190.30 13.08L190.30 13.08L190.30 13.36L190.30 13.36Q190.30 13.68 190.11 13.68L190.11 13.68L190.11 13.68Q189.98 13.68 189.88 13.58L189.88 13.58L189.88 13.58Q185.23 8.19 184.33 7.17L184.33 7.17L184.33 7.17Q183.43 6.16 183.33 6.16L183.33 6.16L183.33 6.16Q183.19 6.16 183.19 7.11L183.19 7.11L183.19 7.11Q183.19 8.44 183.13 9.97L183.13 9.97L183.13 9.97Q183.08 11.51 183.08 11.65L183.08 11.65L183.08 11.65Q183.08 12.28 183.29 12.61L183.29 12.61L183.29 12.61Q183.51 12.94 183.76 12.98L183.76 12.98L183.76 12.98Q184.02 13.02 184.23 13.07L184.23 13.07L184.23 13.07Q184.45 13.12 184.45 13.26L184.45 13.26L184.45 13.26Q184.45 13.41 184.40 13.45L184.40 13.45L184.40 13.45Q184.35 13.50 184.23 13.50L184.23 13.50L184.23 13.50Q184.13 13.50 183.78 13.48L183.78 13.48L183.78 13.48Q183.44 13.47 182.73 13.47L182.73 13.47L182.73 13.47Q182.60 13.47 182.21 13.48L182.21 13.48L182.21 13.48Q181.82 13.50 181.54 13.50L181.54 13.50L181.54 13.50Q181.23 13.50 181.23 13.27L181.23 13.27L181.23 13.27Q181.23 13.15 181.41 13.11L181.41 13.11L181.41 13.11Q181.59 13.08 181.86 12.89L181.86 12.89L181.86 12.89Q182.13 12.71 182.27 12.21L182.27 12.21L182.27 12.21Q182.35 11.89 182.48 9.60L182.48 9.60L182.48 9.60Q182.60 7.32 182.60 6.45L182.60 6.45L182.60 6.45Q182.60 5.25 182.27 4.65L182.27 4.65L182.27 4.65Q181.93 4.06 181.17 3.98L181.17 3.98L181.17 3.98Q180.99 3.96 180.99 3.77ZM209.69 10.82L209.69 10.82L209.69 10.82Q209.69 10.53 209.89 10.53L209.89 10.53L209.89 10.53Q210.07 10.53 210.11 10.67L210.11 10.67L210.11 10.67Q210.25 11.00 210.37 11.25L210.37 11.25L210.37 11.25Q210.49 11.49 210.76 11.85L210.76 11.85L210.76 11.85Q211.02 12.21 211.33 12.44L211.33 12.44L211.33 12.44Q211.64 12.67 212.12 12.84L212.12 12.84L212.12 12.84Q212.60 13.01 213.18 13.01L213.18 13.01L213.18 13.01Q214.23 13.01 214.86 12.45L214.86 12.45L214.86 12.45Q215.50 11.90 215.50 11.00L215.50 11.00L215.50 11.00Q215.50 10.35 215.07 9.90L215.07 9.90L215.07 9.90Q214.63 9.46 214.07 9.27L214.07 9.27L214.07 9.27Q213.51 9.09 212.65 8.77L212.65 8.77L212.65 8.77Q211.79 8.46 211.25 8.13L211.25 8.13L211.25 8.13Q209.97 7.38 209.97 6.08L209.97 6.08L209.97 6.08Q209.97 4.83 210.87 4.08L210.87 4.08L210.87 4.08Q211.78 3.33 213.22 3.33L213.22 3.33L213.22 3.33Q213.75 3.33 214.49 3.56L214.49 3.56L214.49 3.56Q215.22 3.79 215.24 3.79L215.24 3.79L215.24 3.79Q215.28 3.79 215.39 3.74L215.39 3.74L215.39 3.74Q215.50 3.68 215.56 3.68L215.56 3.68L215.56 3.68Q215.74 3.68 215.77 3.79L215.77 3.79L215.77 3.79Q216.06 5.49 216.06 5.70L216.06 5.70L216.06 5.70Q216.06 6.09 215.87 6.09L215.87 6.09L215.87 6.09Q215.74 6.09 215.67 5.89L215.67 5.89L215.67 5.89Q215.50 5.49 215.34 5.24L215.34 5.24L215.34 5.24Q215.18 4.98 215.11 4.91L215.11 4.91L215.11 4.91Q215.04 4.84 214.75 4.58L214.75 4.58L214.75 4.58Q213.99 3.91 212.91 3.91L212.91 3.91L212.91 3.91Q212.04 3.91 211.46 4.33L211.46 4.33L211.46 4.33Q210.87 4.75 210.87 5.46L210.87 5.46L210.87 5.46Q210.87 6.09 211.21 6.50L211.21 6.50L211.21 6.50Q211.55 6.90 212.13 7.13L212.13 7.13L212.13 7.13Q212.70 7.35 213.33 7.55L213.33 7.55L213.33 7.55Q213.96 7.74 214.67 8.09L214.67 8.09L214.67 8.09Q215.38 8.44 215.84 8.93L215.84 8.93L215.84 8.93Q216.40 9.53 216.40 10.43L216.40 10.43L216.40 10.43Q216.40 11.90 215.46 12.76L215.46 12.76L215.46 12.76Q214.52 13.62 213.14 13.62L213.14 13.62L213.14 13.62Q212.17 13.62 211.58 13.52L211.58 13.52L211.58 13.52Q210.99 13.41 210.38 13.09L210.38 13.09L210.38 13.09Q210.20 12.98 209.94 12.00L209.94 12.00L209.94 12.00Q209.69 11.02 209.69 10.82ZM224.08 13.33L224.08 13.33L224.08 13.33Q224.08 13.13 224.29 13.06L224.29 13.06L224.29 13.06Q224.74 12.89 225.08 12.31L225.08 12.31L225.08 12.31Q225.41 11.73 226.74 8.83L226.74 8.83L226.74 8.83Q228.12 5.87 229.17 3.63L229.17 3.63L229.17 3.63Q229.26 3.42 229.34 3.36L229.34 3.36L229.34 3.36Q229.42 3.30 229.59 3.30L229.59 3.30L229.59 3.30Q229.71 3.30 229.75 3.36L229.75 3.36L229.75 3.36Q229.80 3.42 229.94 3.82L229.94 3.82L229.94 3.82Q230.02 4.06 230.08 4.23L230.08 4.23L230.08 4.23Q230.15 4.40 230.29 4.77L230.29 4.77L230.29 4.77Q230.43 5.15 230.59 5.56L230.59 5.56L230.59 5.56Q231.04 6.66 232.14 9.22L232.14 9.22L232.14 9.22Q233.24 11.77 233.34 11.98L233.34 11.98L233.34 11.98Q233.58 12.46 233.87 12.71L233.87 12.71L233.87 12.71Q234.16 12.95 234.38 12.97L234.38 12.97L234.38 12.97Q234.60 12.99 234.74 13.04L234.74 13.04L234.74 13.04Q234.89 13.09 234.89 13.26L234.89 13.26L234.89 13.26Q234.89 13.47 234.51 13.47L234.51 13.47L234.51 13.47Q234.36 13.47 233.91 13.43L233.91 13.43L233.91 13.43Q233.46 13.38 233.25 13.38L233.25 13.38L233.25 13.38Q232.99 13.38 232.57 13.41L232.57 13.41L232.57 13.41Q232.15 13.44 231.95 13.44L231.95 13.44L231.95 13.44Q231.52 13.44 231.40 13.40L231.40 13.40L231.40 13.40Q231.28 13.37 231.28 13.24L231.28 13.24L231.28 13.24Q231.28 13.15 231.39 13.08L231.39 13.08L231.39 13.08Q231.50 13.02 231.63 13.00L231.63 13.00L231.63 13.00Q231.76 12.98 231.87 12.87L231.87 12.87L231.87 12.87Q231.98 12.77 231.98 12.59L231.98 12.59L231.98 12.59Q231.98 12.28 231.63 11.33L231.63 11.33L231.63 11.33Q231.28 10.37 231.04 9.93L231.04 9.93L231.04 9.93Q230.92 9.69 230.47 9.69L230.47 9.69L230.47 9.69Q230.40 9.69 229.85 9.70L229.85 9.70L229.85 9.70Q229.31 9.72 228.77 9.72L228.77 9.72L228.03 9.72L228.03 9.72Q227.40 9.72 227.24 9.79L227.24 9.79L227.24 9.79Q227.08 9.86 226.95 10.12L226.95 10.12L226.95 10.12Q226.87 10.30 226.67 10.70L226.67 10.70L226.67 10.70Q226.48 11.10 226.41 11.26L226.41 11.26L226.41 11.26Q226.34 11.41 226.23 11.65L226.23 11.65L226.23 11.65Q226.13 11.90 226.09 12.05L226.09 12.05L226.09 12.05Q226.06 12.19 226.06 12.31L226.06 12.31L226.06 12.31Q226.06 12.63 226.22 12.80L226.22 12.80L226.22 12.80Q226.38 12.96 226.58 12.98L226.58 12.98L226.58 12.98Q226.77 13.01 226.93 13.06L226.93 13.06L226.93 13.06Q227.09 13.12 227.09 13.26L227.09 13.26L227.09 13.26Q227.09 13.36 227.05 13.40L227.05 13.40L227.05 13.40Q227.01 13.45 226.86 13.45L226.86 13.45L226.86 13.45Q226.77 13.45 226.37 13.45L226.37 13.45L226.37 13.45Q225.97 13.44 225.69 13.44L225.69 13.44L225.69 13.44Q225.39 13.44 225.00 13.47L225.00 13.47L225.00 13.47Q224.62 13.50 224.49 13.50L224.49 13.50L224.49 13.50Q224.08 13.50 224.08 13.33ZM227.60 8.71L227.60 8.71L227.60 8.71Q227.60 8.89 227.72 8.93L227.72 8.93L227.72 8.93Q227.85 8.97 228.31 8.97L228.31 8.97L228.75 8.97L230.08 8.96L230.08 8.96Q230.62 8.96 230.62 8.74L230.62 8.74L230.62 8.74Q230.62 8.55 229.94 7.01L229.94 7.01L229.94 7.01Q229.25 5.46 229.07 5.46L229.07 5.46L229.07 5.46Q228.94 5.46 228.27 7.01L228.27 7.01L228.27 7.01Q227.60 8.55 227.60 8.71ZM242.45 3.71L242.45 3.71L242.45 3.71Q242.45 3.50 242.70 3.50L242.70 3.50L242.70 3.50Q242.79 3.50 243.09 3.53L243.09 3.53L243.09 3.53Q243.39 3.56 243.45 3.56L243.45 3.56L243.45 3.56Q243.66 3.56 244.02 3.54L244.02 3.54L244.02 3.54Q244.38 3.53 244.50 3.53L244.50 3.53L244.50 3.53Q244.76 3.53 244.83 3.72L244.83 3.72L244.83 3.72Q245.00 4.09 245.43 5.03L245.43 5.03L245.43 5.03Q245.87 5.98 246.13 6.54L246.13 6.54L246.13 6.54Q246.39 7.10 246.79 7.97L246.79 7.97L246.79 7.97Q247.20 8.83 247.45 9.37L247.45 9.37L247.45 9.37Q247.70 9.91 247.97 10.46L247.97 10.46L247.97 10.46Q248.25 11.00 248.39 11.26L248.39 11.26L248.39 11.26Q248.54 11.52 248.58 11.52L248.58 11.52L248.58 11.52Q248.63 11.52 248.67 11.47L248.67 11.47L248.67 11.47Q248.72 11.42 248.77 11.34L248.77 11.34L248.77 11.34Q248.82 11.26 248.86 11.17L248.86 11.17L248.86 11.17Q248.89 11.09 248.95 10.96L248.95 10.96L248.95 10.96Q249.02 10.82 249.05 10.75L249.05 10.75L250.85 7.03L250.85 7.03Q251.16 6.40 251.40 5.89L251.40 5.89L251.40 5.89Q251.64 5.39 251.78 5.08L251.78 5.08L251.78 5.08Q251.92 4.77 252.01 4.55L252.01 4.55L252.01 4.55Q252.11 4.33 252.16 4.21L252.16 4.21L252.16 4.21Q252.21 4.10 252.23 4.04L252.23 4.04L252.23 4.04Q252.25 3.98 252.27 3.94L252.27 3.94L252.27 3.94Q252.28 3.91 252.29 3.88L252.29 3.88L252.29 3.88Q252.31 3.85 252.34 3.75L252.34 3.75L252.34 3.75Q252.38 3.65 252.41 3.62L252.41 3.62L252.41 3.62Q252.45 3.58 252.55 3.54L252.55 3.54L252.55 3.54Q252.66 3.50 252.83 3.50L252.83 3.50L252.83 3.50Q253.09 3.50 253.32 3.51L253.32 3.51L253.32 3.51Q253.55 3.53 254.03 3.53L254.03 3.53L254.03 3.53Q254.27 3.53 254.27 3.71L254.27 3.71L254.27 3.71Q254.27 3.85 254.18 3.91L254.18 3.91L254.18 3.91Q254.09 3.98 253.81 4.02L253.81 4.02L253.81 4.02Q253.46 4.06 253.32 4.37L253.32 4.37L253.32 4.37Q253.18 4.68 253.18 5.54L253.18 5.54L253.18 5.54Q253.18 7.43 253.26 8.97L253.26 8.97L253.26 8.97Q253.34 10.50 253.34 10.89L253.34 10.89L253.34 10.89Q253.34 12.29 253.57 12.68L253.57 12.68L253.57 12.68Q253.79 13.06 254.51 13.06L254.51 13.06L254.51 13.06Q254.60 13.06 254.68 13.13L254.68 13.13L254.68 13.13Q254.76 13.20 254.76 13.26L254.76 13.26L254.76 13.26Q254.76 13.34 254.74 13.38L254.74 13.38L254.74 13.38Q254.73 13.43 254.69 13.45L254.69 13.45L254.69 13.45Q254.65 13.48 254.60 13.48L254.60 13.48L254.60 13.48Q254.56 13.48 254.45 13.48L254.45 13.48L254.45 13.48Q254.03 13.48 253.62 13.45L253.62 13.45L253.62 13.45Q253.22 13.43 253.02 13.43L253.02 13.43L253.02 13.43Q252.63 13.43 252.21 13.46L252.21 13.46L252.21 13.46Q251.79 13.50 251.57 13.50L251.57 13.50L251.57 13.50Q251.31 13.50 251.31 13.30L251.31 13.30L251.31 13.30Q251.31 13.17 251.43 13.12L251.43 13.12L251.43 13.12Q251.54 13.06 251.68 13.05L251.68 13.05L251.68 13.05Q251.83 13.03 251.99 12.87L251.99 12.87L251.99 12.87Q252.15 12.71 252.22 12.39L252.22 12.39L252.22 12.39Q252.28 12.11 252.28 11.49L252.28 11.49L252.28 11.49Q252.28 11.05 252.26 10.42L252.26 10.42L252.26 10.42Q252.24 9.79 252.21 9.19L252.21 9.19L252.21 9.19Q252.18 8.60 252.15 8.07L252.15 8.07L252.15 8.07Q252.13 7.55 252.11 7.21L252.11 7.21L252.08 6.87L252.08 6.87Q252.08 6.27 251.96 6.27L251.96 6.27L251.96 6.27Q251.94 6.27 251.92 6.29L251.92 6.29L251.92 6.29Q251.89 6.30 251.87 6.33L251.87 6.33L251.87 6.33Q251.85 6.36 251.82 6.38L251.82 6.38L251.82 6.38Q251.79 6.41 251.76 6.47L251.76 6.47L251.76 6.47Q251.73 6.54 251.71 6.58L251.71 6.58L251.71 6.58Q251.68 6.62 251.64 6.70L251.64 6.70L251.64 6.70Q251.59 6.78 251.57 6.83L251.57 6.83L251.57 6.83Q251.54 6.89 251.49 6.99L251.49 6.99L251.49 6.99Q251.44 7.08 251.41 7.15L251.41 7.15L249.47 11.09L249.47 11.09Q249.13 11.77 248.75 12.56L248.75 12.56L248.75 12.56Q248.50 13.09 248.44 13.18L248.44 13.18L248.44 13.18Q248.39 13.27 248.30 13.27L248.30 13.27L248.30 13.27Q248.18 13.27 248.09 13.15L248.09 13.15L248.09 13.15Q248.01 13.03 247.84 12.63L247.84 12.63L247.84 12.63Q247.67 12.22 247.55 11.96L247.55 11.96L247.55 11.96Q244.99 6.75 244.92 6.65L244.92 6.65L244.92 6.65Q244.87 6.59 244.83 6.59L244.83 6.59L244.83 6.59Q244.72 6.59 244.72 7.15L244.72 7.15L244.72 7.15Q244.71 8.25 244.65 9.31L244.65 9.31L244.65 9.31Q244.59 10.37 244.59 10.85L244.59 10.85L244.59 11.48L244.59 11.48Q244.59 11.84 244.61 12.04L244.61 12.04L244.61 12.04Q244.64 12.24 244.73 12.49L244.73 12.49L244.73 12.49Q244.82 12.75 245.06 12.89L245.06 12.89L245.06 12.89Q245.29 13.03 245.67 13.08L245.67 13.08L245.67 13.08Q245.74 13.08 245.80 13.13L245.80 13.13L245.80 13.13Q245.87 13.17 245.87 13.23L245.87 13.23L245.87 13.23Q245.87 13.38 245.83 13.43L245.83 13.43L245.83 13.43Q245.78 13.48 245.66 13.48L245.66 13.48L245.66 13.48Q245.38 13.48 244.82 13.45L244.82 13.45L244.82 13.45Q244.26 13.43 244.20 13.43L244.20 13.43L244.20 13.43Q244.17 13.43 243.80 13.45L243.80 13.45L243.80 13.45Q243.42 13.47 243.05 13.47L243.05 13.47L243.05 13.47Q242.94 13.47 242.89 13.45L242.89 13.45L242.89 13.45Q242.84 13.44 242.80 13.39L242.80 13.39L242.80 13.39Q242.76 13.34 242.76 13.24L242.76 13.24L242.76 13.24Q242.76 13.13 242.89 13.09L242.89 13.09L242.89 13.09Q243.01 13.05 243.17 13.04L243.17 13.04L243.17 13.04Q243.33 13.03 243.53 12.82L243.53 12.82L243.53 12.82Q243.73 12.60 243.82 12.18L243.82 12.18L243.82 12.18Q243.89 11.87 243.99 9.74L243.99 9.74L243.99 9.74Q244.09 7.62 244.09 6.59L244.09 6.59L244.09 6.59Q244.09 5.19 243.82 4.66L243.82 4.66L243.82 4.66Q243.54 4.13 242.63 3.92L242.63 3.92L242.63 3.92Q242.45 3.88 242.45 3.71ZM262.32 3.68L262.32 3.68L262.32 3.68Q262.32 3.61 262.33 3.58L262.33 3.58L262.33 3.58Q262.35 3.56 262.42 3.53L262.42 3.53L262.42 3.53Q262.49 3.50 262.64 3.50L262.64 3.50L262.64 3.50Q262.79 3.50 263.28 3.53L263.28 3.53L263.28 3.53Q263.77 3.56 264.22 3.56L264.22 3.56L264.22 3.56Q264.50 3.56 264.73 3.54L264.73 3.54L264.73 3.54Q264.96 3.53 265.54 3.53L265.54 3.53L265.54 3.53Q265.83 3.53 265.83 3.72L265.83 3.72L265.83 3.72Q265.83 3.85 265.73 3.88L265.73 3.88L265.73 3.88Q265.64 3.91 265.49 3.92L265.49 3.92L265.49 3.92Q265.34 3.93 265.19 4.02L265.19 4.02L265.19 4.02Q265.05 4.10 264.95 4.43L264.95 4.43L264.95 4.43Q264.85 4.76 264.85 5.32L264.85 5.32L264.85 5.71L264.85 5.71Q264.85 6.37 264.84 7.37L264.84 7.37L264.84 7.37Q264.84 8.37 264.84 8.74L264.84 8.74L264.84 8.74Q264.84 9.17 264.84 9.39L264.84 9.39L264.84 9.39Q264.85 9.62 264.88 10.04L264.88 10.04L264.88 10.04Q264.91 10.47 264.96 10.72L264.96 10.72L264.96 10.72Q265.01 10.96 265.12 11.32L265.12 11.32L265.12 11.32Q265.23 11.68 265.39 11.89L265.39 11.89L265.39 11.89Q265.55 12.10 265.80 12.35L265.80 12.35L265.80 12.35Q266.04 12.60 266.36 12.73L266.36 12.73L266.36 12.73Q266.69 12.87 267.12 12.96L267.12 12.96L267.12 12.96Q267.55 13.05 268.09 13.05L268.09 13.05L268.09 13.05Q268.53 13.05 268.79 13.03L268.79 13.03L268.79 13.03Q269.04 13.02 269.48 12.94L269.48 12.94L269.48 12.94Q269.92 12.87 270.18 12.72L270.18 12.72L270.18 12.72Q270.44 12.57 270.77 12.27L270.77 12.27L270.77 12.27Q271.10 11.97 271.28 11.54L271.28 11.54L271.28 11.54Q271.46 11.10 271.59 10.43L271.59 10.43L271.59 10.43Q271.71 9.76 271.71 8.90L271.71 8.90L271.71 8.90Q271.71 7.49 271.70 6.75L271.70 6.75L271.70 6.75Q271.70 6.01 271.70 5.94L271.70 5.94L271.70 5.94Q271.70 5.45 271.68 5.17L271.68 5.17L271.68 5.17Q271.66 4.89 271.54 4.55L271.54 4.55L271.54 4.55Q271.42 4.21 271.19 4.06L271.19 4.06L271.19 4.06Q271.05 3.96 270.83 3.93L270.83 3.93L270.83 3.93Q270.61 3.89 270.47 3.87L270.47 3.87L270.47 3.87Q270.33 3.85 270.33 3.75L270.33 3.75L270.33 3.75Q270.33 3.53 270.61 3.53L270.61 3.53L270.61 3.53Q270.69 3.53 271.15 3.54L271.15 3.54L271.15 3.54Q271.61 3.56 271.68 3.56L271.68 3.56L271.68 3.56Q272.02 3.56 272.40 3.54L272.40 3.54L272.40 3.54Q272.78 3.51 272.87 3.51L272.87 3.51L272.87 3.51Q273.17 3.51 273.17 3.70L273.17 3.70L273.17 3.70Q273.17 3.81 272.87 3.98L272.87 3.98L272.87 3.98Q272.57 4.16 272.50 4.30L272.50 4.30L272.50 4.30Q272.34 4.59 272.34 5.22L272.34 5.22L272.34 5.22Q272.34 5.32 272.35 5.62L272.35 5.62L272.35 5.62Q272.36 5.92 272.36 6.16L272.36 6.16L272.36 6.16Q272.36 8.85 272.13 10.28L272.13 10.28L272.13 10.28Q271.91 11.70 271.45 12.36L271.45 12.36L271.45 12.36Q271.00 13.01 270.09 13.40L270.09 13.40L270.09 13.40Q269.35 13.71 268.09 13.71L268.09 13.71L268.09 13.71Q265.75 13.71 264.77 12.81L264.77 12.81L264.77 12.81Q264.00 12.10 263.82 11.09L263.82 11.09L263.82 11.09Q263.63 10.09 263.63 7.64L263.63 7.64L263.63 7.41L263.63 7.41Q263.63 6.86 263.65 6.20L263.65 6.20L263.65 6.20Q263.66 5.54 263.66 5.39L263.66 5.39L263.66 5.39Q263.66 4.62 263.48 4.33L263.48 4.33L263.48 4.33Q263.30 4.05 262.63 3.95L262.63 3.95L262.63 3.95Q262.32 3.91 262.32 3.68ZM280.73 3.70L280.73 3.70L280.73 3.70Q280.73 3.47 281.13 3.47L281.13 3.47L283.46 3.47L283.46 3.47Q283.78 3.47 284.20 3.45L284.20 3.45L284.20 3.45Q284.62 3.43 284.86 3.43L284.86 3.43L284.86 3.43Q286.12 3.43 287.01 4.07L287.01 4.07L287.01 4.07Q287.91 4.70 287.91 5.78L287.91 5.78L287.91 5.78Q287.91 6.50 287.64 7.03L287.64 7.03L287.64 7.03Q287.36 7.57 287.03 7.81L287.03 7.81L287.03 7.81Q286.71 8.05 286.43 8.22L286.43 8.22L286.43 8.22Q286.16 8.40 286.16 8.46L286.16 8.46L286.16 8.46Q286.16 8.62 287.34 10.27L287.34 10.27L287.34 10.27Q288.51 11.91 288.95 12.38L288.95 12.38L288.95 12.38Q289.48 13.03 290.23 13.03L290.23 13.03L290.23 13.03Q290.43 13.03 290.43 13.20L290.43 13.20L290.43 13.20Q290.43 13.41 290.26 13.48L290.26 13.48L290.26 13.48Q290.09 13.55 289.39 13.55L289.39 13.55L289.39 13.55Q288.74 13.55 288.19 13.23L288.19 13.23L288.19 13.23Q287.49 12.82 285.82 10.09L285.82 10.09L285.82 10.09Q285.73 9.94 285.68 9.87L285.68 9.87L285.68 9.87Q285.01 8.78 284.65 8.78L284.65 8.78L284.35 8.78L283.50 8.78L283.50 8.78Q283.33 8.78 283.30 8.92L283.30 8.92L283.30 8.92Q283.26 9.06 283.26 9.77L283.26 9.77L283.26 9.77Q283.26 10.44 283.26 10.88L283.26 10.88L283.26 10.88Q283.26 11.31 283.27 11.43L283.27 11.43L283.27 11.43Q283.28 11.55 283.28 11.63L283.28 11.63L283.28 11.63Q283.28 11.70 283.28 11.75L283.28 11.75L283.28 11.75Q283.28 12.32 283.54 12.63L283.54 12.63L283.54 12.63Q283.81 12.95 284.14 13.00L284.14 13.00L284.14 13.00Q284.47 13.05 284.73 13.11L284.73 13.11L284.73 13.11Q285.00 13.17 285.00 13.31L285.00 13.31L285.00 13.31Q285.00 13.54 284.75 13.54L284.75 13.54L284.75 13.54Q284.73 13.54 283.78 13.49L283.78 13.49L283.78 13.49Q282.83 13.44 282.74 13.44L282.74 13.44L282.74 13.44Q282.34 13.44 281.78 13.47L281.78 13.47L281.78 13.47Q281.22 13.50 281.20 13.50L281.20 13.50L281.20 13.50Q280.91 13.50 280.91 13.27L280.91 13.27L280.91 13.27Q280.91 13.12 281.09 13.05L281.09 13.05L281.09 13.05Q281.27 12.99 281.50 12.96L281.50 12.96L281.50 12.96Q281.72 12.94 281.90 12.66L281.90 12.66L281.90 12.66Q282.09 12.38 282.09 11.86L282.09 11.86L282.09 11.86Q282.09 11.49 282.09 9.90L282.09 9.90L282.09 9.90Q282.10 8.30 282.10 7.45L282.10 7.45L282.10 7.45Q282.10 6.58 282.09 5.86L282.09 5.86L282.09 5.86Q282.09 5.14 282.09 5.08L282.09 5.08L282.09 5.08Q282.09 4.56 281.88 4.29L281.88 4.29L281.88 4.29Q281.67 4.02 281.41 3.98L281.41 3.98L281.41 3.98Q281.15 3.95 280.94 3.89L280.94 3.89L280.94 3.89Q280.73 3.84 280.73 3.70ZM283.26 5.54L283.26 5.94L283.26 5.94Q283.26 7.38 283.28 7.72L283.28 7.72L283.28 7.72Q283.29 8.06 283.37 8.12L283.37 8.12L283.37 8.12Q283.58 8.25 283.98 8.25L283.98 8.25L284.12 8.25L284.52 8.25L284.52 8.25Q285.71 8.25 286.22 7.70L286.22 7.70L286.22 7.70Q286.73 7.15 286.73 6.30L286.73 6.30L286.73 6.30Q286.73 5.43 286.06 4.72L286.06 4.72L286.06 4.72Q285.38 4.00 284.00 4.00L284.00 4.00L284.00 4.00Q283.49 4.00 283.37 4.28L283.37 4.28L283.37 4.28Q283.26 4.55 283.26 5.54L283.26 5.54ZM297.78 13.33L297.78 13.33L297.78 13.33Q297.78 13.13 297.99 13.06L297.99 13.06L297.99 13.06Q298.44 12.89 298.77 12.31L298.77 12.31L298.77 12.31Q299.11 11.73 300.44 8.83L300.44 8.83L300.44 8.83Q301.81 5.87 302.86 3.63L302.86 3.63L302.86 3.63Q302.96 3.42 303.04 3.36L303.04 3.36L303.04 3.36Q303.11 3.30 303.28 3.30L303.28 3.30L303.28 3.30Q303.41 3.30 303.45 3.36L303.45 3.36L303.45 3.36Q303.49 3.42 303.63 3.82L303.63 3.82L303.63 3.82Q303.72 4.06 303.78 4.23L303.78 4.23L303.78 4.23Q303.84 4.40 303.98 4.77L303.98 4.77L303.98 4.77Q304.12 5.15 304.29 5.56L304.29 5.56L304.29 5.56Q304.74 6.66 305.84 9.22L305.84 9.22L305.84 9.22Q306.94 11.77 307.03 11.98L307.03 11.98L307.03 11.98Q307.27 12.46 307.57 12.71L307.57 12.71L307.57 12.71Q307.86 12.95 308.08 12.97L308.08 12.97L308.08 12.97Q308.29 12.99 308.44 13.04L308.44 13.04L308.44 13.04Q308.59 13.09 308.59 13.26L308.59 13.26L308.59 13.26Q308.59 13.47 308.21 13.47L308.21 13.47L308.21 13.47Q308.06 13.47 307.61 13.43L307.61 13.43L307.61 13.43Q307.16 13.38 306.95 13.38L306.95 13.38L306.95 13.38Q306.68 13.38 306.26 13.41L306.26 13.41L306.26 13.41Q305.84 13.44 305.65 13.44L305.65 13.44L305.65 13.44Q305.21 13.44 305.10 13.40L305.10 13.40L305.10 13.40Q304.98 13.37 304.98 13.24L304.98 13.24L304.98 13.24Q304.98 13.15 305.09 13.08L305.09 13.08L305.09 13.08Q305.20 13.02 305.33 13.00L305.33 13.00L305.33 13.00Q305.45 12.98 305.56 12.87L305.56 12.87L305.56 12.87Q305.68 12.77 305.68 12.59L305.68 12.59L305.68 12.59Q305.68 12.28 305.33 11.33L305.33 11.33L305.33 11.33Q304.98 10.37 304.74 9.93L304.74 9.93L304.74 9.93Q304.61 9.69 304.16 9.69L304.16 9.69L304.16 9.69Q304.09 9.69 303.55 9.70L303.55 9.70L303.55 9.70Q303.00 9.72 302.47 9.72L302.47 9.72L301.73 9.72L301.73 9.72Q301.10 9.72 300.94 9.79L300.94 9.79L300.94 9.79Q300.78 9.86 300.65 10.12L300.65 10.12L300.65 10.12Q300.57 10.30 300.37 10.70L300.37 10.70L300.37 10.70Q300.17 11.10 300.10 11.26L300.10 11.26L300.10 11.26Q300.03 11.41 299.93 11.65L299.93 11.65L299.93 11.65Q299.82 11.90 299.79 12.05L299.79 12.05L299.79 12.05Q299.75 12.19 299.75 12.31L299.75 12.31L299.75 12.31Q299.75 12.63 299.92 12.80L299.92 12.80L299.92 12.80Q300.08 12.96 300.27 12.98L300.27 12.98L300.27 12.98Q300.47 13.01 300.63 13.06L300.63 13.06L300.63 13.06Q300.79 13.12 300.79 13.26L300.79 13.26L300.79 13.26Q300.79 13.36 300.75 13.40L300.75 13.40L300.75 13.40Q300.71 13.45 300.55 13.45L300.55 13.45L300.55 13.45Q300.47 13.45 300.07 13.45L300.07 13.45L300.07 13.45Q299.67 13.44 299.39 13.44L299.39 13.44L299.39 13.44Q299.08 13.44 298.70 13.47L298.70 13.47L298.70 13.47Q298.31 13.50 298.19 13.50L298.19 13.50L298.19 13.50Q297.78 13.50 297.78 13.33ZM301.29 8.71L301.29 8.71L301.29 8.71Q301.29 8.89 301.42 8.93L301.42 8.93L301.42 8.93Q301.55 8.97 302.01 8.97L302.01 8.97L302.44 8.97L303.77 8.96L303.77 8.96Q304.32 8.96 304.32 8.74L304.32 8.74L304.32 8.74Q304.32 8.55 303.63 7.01L303.63 7.01L303.63 7.01Q302.95 5.46 302.76 5.46L302.76 5.46L302.76 5.46Q302.64 5.46 301.97 7.01L301.97 7.01L301.97 7.01Q301.29 8.55 301.29 8.71ZM316.15 3.71L316.15 3.71L316.15 3.71Q316.15 3.50 316.54 3.50L316.54 3.50L316.54 3.50Q316.68 3.50 317.18 3.53L317.18 3.53L317.18 3.53Q317.69 3.56 318.12 3.56L318.12 3.56L318.12 3.56Q318.39 3.56 318.63 3.54L318.63 3.54L318.63 3.54Q318.88 3.53 319.35 3.53L319.35 3.53L319.35 3.53Q319.73 3.53 319.73 3.72L319.73 3.72L319.73 3.72Q319.73 3.84 319.09 4.10L319.09 4.10L319.09 4.10Q318.64 4.28 318.64 5.71L318.64 5.71L318.64 5.71Q318.64 7.60 318.62 9.05L318.62 9.05L318.62 9.05Q318.60 10.50 318.60 10.89L318.60 10.89L318.60 10.89Q318.60 12.07 318.95 12.59L318.95 12.59L318.95 12.59Q319.26 13.02 319.62 13.02L319.62 13.02L319.62 13.02Q319.65 13.02 319.76 13.03L319.76 13.03L319.76 13.03Q319.87 13.03 319.90 13.03L319.90 13.03L319.90 13.03Q320.00 13.03 320.10 13.08L320.10 13.08L320.10 13.08Q320.19 13.13 320.19 13.19L320.19 13.19L320.19 13.19Q320.19 13.34 320.12 13.39L320.12 13.39L320.12 13.39Q320.04 13.44 319.84 13.44L319.84 13.44L319.84 13.44Q319.42 13.44 319.07 13.41L319.07 13.41L319.07 13.41Q318.71 13.38 318.51 13.38L318.51 13.38L318.51 13.38Q318.12 13.38 317.66 13.42L317.66 13.42L317.66 13.42Q317.20 13.45 316.97 13.45L316.97 13.45L316.97 13.45Q316.34 13.45 316.34 13.24L316.34 13.24L316.34 13.24Q316.34 13.12 316.48 13.07L316.48 13.07L316.48 13.07Q316.61 13.02 316.78 13.00L316.78 13.00L316.78 13.00Q316.95 12.98 317.13 12.82L317.13 12.82L317.13 12.82Q317.31 12.66 317.38 12.35L317.38 12.35L317.38 12.35Q317.41 12.25 317.47 10.76L317.47 10.76L317.47 10.76Q317.53 9.27 317.53 8.61L317.53 8.61L317.53 7.81L317.53 7.81Q317.53 7.63 317.54 7.12L317.54 7.12L317.54 7.12Q317.55 6.61 317.55 6.30L317.55 6.30L317.55 5.66L317.55 5.66Q317.55 5.04 317.49 4.63L317.49 4.63L317.49 4.63Q317.45 4.30 317.12 4.12L317.12 4.12L317.12 4.12Q316.79 3.93 316.44 3.92L316.44 3.92L316.44 3.92Q316.15 3.91 316.15 3.71Z"></path></g></svg>